<?xml version="1.0" encoding="UTF-8"?>
<!DOCTYPE svg PUBLIC "-//W3C//DTD SVG 1.1//EN" "http://www.w3.org/Graphics/SVG/1.1/DTD/svg11.dtd">
<!-- Creator: CorelDRAW -->
<svg xmlns="http://www.w3.org/2000/svg" xml:space="preserve" width="176.389mm" height="176.389mm" version="1.1" style="shape-rendering:geometricPrecision; text-rendering:geometricPrecision; image-rendering:optimizeQuality; fill-rule:evenodd; clip-rule:evenodd"
viewBox="0 0 17638.88 17638.88"
 xmlns:xlink="http://www.w3.org/1999/xlink"
 xmlns:xodm="http://www.corel.com/coreldraw/odm/2003">
 <defs>
  <style type="text/css">
   <![CDATA[
    .fil8 {fill:#FEFEFE;fill-rule:nonzero}
    .fil10 {fill:#F1BF42;fill-rule:nonzero}
    .fil0 {fill:#E4E5EB;fill-rule:nonzero}
    .fil9 {fill:#646DAA;fill-rule:nonzero}
    .fil11 {fill:#4C8ECB;fill-rule:nonzero}
    .fil6 {fill:#4F5AA3;fill-rule:nonzero}
    .fil3 {fill:#45508E;fill-rule:nonzero}
    .fil5 {fill:url(#id134)}
    .fil7 {fill:url(#id135)}
    .fil1 {fill:url(#id136)}
    .fil12 {fill:url(#id137)}
    .fil2 {fill:url(#id138)}
    .fil14 {fill:url(#id139)}
    .fil15 {fill:url(#id140)}
    .fil13 {fill:url(#id141)}
    .fil4 {fill:url(#id142)}
   ]]>
  </style>
   <clipPath id="id0">
    <path d="M8819.37 12488.54c-161.75,0 -292.73,-131.14 -292.73,-292.86 0,-161.72 130.98,-292.86 292.73,-292.86 161.76,0 292.92,131.14 292.92,292.86 0,161.72 -131.16,292.86 -292.92,292.86l0 0z"/>
   </clipPath>
   <clipPath id="id1">
    <path d="M14922.97 13862.55l-173.18 0 0 -3210.58 173.18 0 0 3210.58zm-2996.48 -637.83c-58.95,-3.73 -118.83,-7.45 -178.7,-11.18l0 -312.86 178.7 0 0 324.04 0 0z"/>
   </clipPath>
   <clipPath id="id2">
    <path d="M11926.59 13862.17l-178.99 0 0 -648.43c60.38,3.83 120.18,7.45 178.99,11.47l0 636.96 0 0z"/>
   </clipPath>
   <clipPath id="id3">
    <path d="M11926.59 12900.79l-178.99 0 0 -1277.7 178.99 0 0 1277.7 0 0z"/>
   </clipPath>
   <clipPath id="id4">
    <path d="M11926.59 11622.94l-178.99 0 0 -555.89 178.99 0 0 555.89 0 0z"/>
   </clipPath>
   <clipPath id="id5">
    <path d="M11926.59 11067.1l-178.99 0 0 -415.24 178.99 0 0 415.24 0 0z"/>
   </clipPath>
   <clipPath id="id6">
    <path d="M14749.96 13862.55l-2823.11 0 0 -3210.58 2823.11 0 0 3210.58zm-2587.44 -2972.21l0 2398.62 2398.57 0 0 -2398.62 -2398.57 0 0 0z"/>
   </clipPath>
   <clipPath id="id7">
    <path d="M14561.16 13289.01l-2398.73 0 0 -2398.74 2398.73 0 0 2398.74zm-1925.97 -2356.94c-173.35,0 -313.12,140.45 -313.12,313.11l0 1406.63c0,172.66 139.77,313.12 313.12,313.12l1405.94 0c173.34,0 313.8,-140.46 313.8,-313.12l0 -1406.63c0,-172.66 -140.46,-313.11 -313.8,-313.11l-1405.94 0 0 0z"/>
   </clipPath>
   <clipPath id="id8">
    <path d="M14041.19 12965.04l-1405.92 0c-172.9,0 -313.79,-140.3 -313.79,-313.79l0 -1405.92c0,-172.91 140.89,-313.79 313.79,-313.79l1405.92 0c173.49,0 313.79,140.88 313.79,313.79l0 1405.92c0,173.49 -140.3,313.79 -313.79,313.79l0 0z"/>
   </clipPath>
   <clipPath id="id9">
    <path d="M5399.64 5831.03l-108.63 0 0 -164.84 108.63 0 0 164.84zm6313.07 -158.59c-47.87,-19.65 -93.89,-43 -138.08,-69.59 -23.93,-141.25 -141.76,-250.61 -285.37,-261.47 -58.91,-79.53 -106.78,-168.3 -139.92,-263.32l563.37 0 0 594.38zm-6263.37 -186.8l-158.33 0 0 -407.58 5180.81 0c0,4.39 1.84,8.78 1.84,13.18l-430.81 249.21 -4330.23 0c-110.47,0 -208.04,57.8 -263.28,145.19l0 0z"/>
   </clipPath>
   <clipPath id="id10">
    <path d="M11712.08 5831.03l-133.6 0 0 -176.86c0,-17.57 -1.47,-34.68 -3.93,-51.32 43.72,26.59 89.89,49.94 137.53,69.59l0 158.59zm-423.39 -489.65c-7.85,-0.46 -15.71,-0.93 -23.57,-0.93l-1222.03 0 431.25 -249.21c-0.5,-4.4 -1.48,-8.79 -2.46,-13.18l678.3 0c32.91,95.02 80.07,183.79 138.51,263.32l0 0z"/>
   </clipPath>
   <clipPath id="id11">
    <path d="M5399.78 5666.22l-108.07 0 0 -180.69 157.15 0c-31.03,48.7 -49.08,106.51 -49.08,168.52l0 12.17 0 0z"/>
   </clipPath>
   <clipPath id="id12">
    <path d="M11712.71 6376.33l-134.4 0 0 -545.19 134.4 0 0 545.19zm-6313.07 0l-108.63 0 0 -545.19 108.63 0 0 545.19 0 0z"/>
   </clipPath>
   <clipPath id="id13">
    <path d="M11926.15 10228.4l-277.92 0 0 -420 -707.62 0 0 420 -319.31 0 0 -420 -707.62 0 0 420 -321.28 0 0 -420 -707.62 0 0 420 -806.17 0 0 -634.45 -2787.1 0 0 -2328.93 0 -888.9 108.41 0 0 2634.49c0,173.33 139.95,313.33 313.4,313.33l5552.52 0c171.48,0 313.4,-140 313.4,-313.33l0 -2634.49 132.06 0 0 1982.25 459.27 0 0 114.45 -179.37 0 0 78.89 179.37 0 0 981.13c-139.95,32.22 -244.42,156.67 -244.42,305.56l0 390 0 0z"/>
   </clipPath>
   <clipPath id="id14">
    <path d="M11926.56 10228.58l0 0 0 -389.73c0,-149.3 104.5,-274.27 244.3,-305.68l0 329.79 -244.3 0 0 365.62 0 0z"/>
   </clipPath>
   <clipPath id="id15">
    <path d="M12170.86 10228.49l-244.3 0 0 -365.64 244.3 0 0 365.64 0 0z"/>
   </clipPath>
   <clipPath id="id16">
    <path d="M10168.6 5831.15l-4769.54 0 0 -164.89 3396.94 0c49.6,0 90.33,-40.46 90.33,-90.43 0,-49.81 -40.73,-90.27 -90.33,-90.27l-3347.35 0c56.67,-87.2 154.08,-145.07 263.89,-145.07l4330.31 0 -118.66 68.18 244.41 422.48zm1406.24 -228.4c-111.58,-67.7 -208.99,-156.68 -285.14,-261.29 143.46,10.8 262.12,120.25 285.14,261.29l0 0z"/>
   </clipPath>
   <clipPath id="id17">
    <path d="M11578.83 5831.15l-1410.15 0 -243.62 -422.48 117.88 -68.18 1222.03 0c8.35,0 16.21,0.32 24.07,0.97 77.11,104.61 173.87,193.59 285.37,261.29 2.95,16.76 4.42,33.85 4.42,51.26l0 177.14 0 0z"/>
   </clipPath>
   <clipPath id="id18">
    <path d="M8796.69 5666.22l-3396.4 0 0 -12.17c0,-62.01 17.19,-119.82 48.53,-168.52l3347.87 0c49.55,0 90,40.44 90,90.35 0,49.83 -40.45,90.34 -90,90.34l0 0z"/>
   </clipPath>
   <clipPath id="id19">
    <path d="M11578.38 6376.33l-6179.32 0 0 -545.19 4769.54 0 1409.78 0 0 545.19 0 0z"/>
   </clipPath>
   <clipPath id="id20">
    <path d="M11264.9 9324.28l-5552.36 0c-171.8,0 -313.48,-140.44 -313.48,-313.23l0 -2634.29 6179.32 0 0 2634.29c0,172.79 -139.91,313.23 -313.48,313.23l0 0z"/>
   </clipPath>
   <clipPath id="id21">
    <path d="M3789.43 10228.14l-326.36 0 -59.28 -153.14 -397.26 153.14 -1313.38 0 0 -695.29c14.05,9.51 31.16,14.27 48.89,14.27l2047.39 0 0 681.02zm-2096.28 -847.47l0 -494.59c14.05,9.51 31.16,14.27 48.89,14.27l547.6 0 0 110.33c0,72.28 24.45,138.86 65.39,191.18l0 164.54 -612.99 0c-17.73,0 -34.84,5.71 -48.89,14.27zm0 -646.77l0 -494.6c14.05,9.51 31.16,14.27 48.89,14.27l547.6 0 0 466.06 -547.6 0c-17.73,0 -34.84,5.71 -48.89,14.27zm0 -646.78l0 -494.59c14.05,9.51 31.16,14.26 48.89,14.26l547.6 0 0 466.06 -547.6 0c-17.73,0 -34.84,5.71 -48.89,14.27zm0 -646.77l0 -494.6 0 0 0 319.59 596.49 0 0 160.74 -547.6 0c-17.73,0 -34.84,5.7 -48.89,14.27l0 0z"/>
   </clipPath>
   <clipPath id="id22">
    <path d="M3463.26 10228.49l-456.89 0 397.33 -153.85 59.56 153.85 0 0z"/>
   </clipPath>
   <clipPath id="id23">
    <path d="M2289.77 7606.86l-547.57 0c-17.97,0 -34.79,-5.27 -48.75,-14.24l0 -152.15c13.96,-9.04 30.78,-14.31 48.75,-14.31l547.57 0 0 180.7 0 0z"/>
   </clipPath>
   <clipPath id="id24">
    <path d="M2289.77 8253.75l-547.57 0c-17.97,0 -34.79,-5.27 -48.75,-14.31l0 -152.08c13.96,-9.04 30.78,-14.31 48.75,-14.31l547.57 0 0 180.7 0 0z"/>
   </clipPath>
   <clipPath id="id25">
    <path d="M2289.77 8900.64l-547.57 0c-17.97,0 -34.79,-5.27 -48.75,-14.31l0 -152.08c13.96,-9.04 30.78,-14.31 48.75,-14.31l547.57 0 0 180.7 0 0z"/>
   </clipPath>
   <clipPath id="id26">
    <path d="M3789.43 9547.49l-2047.39 0c-17.73,0 -34.84,-5.2 -48.89,-14.24l0 -152.14c14.05,-9.04 31.16,-14.24 48.89,-14.24l612.99 0 0 41.5 1434.4 0 0 139.12 0 0z"/>
   </clipPath>
   <clipPath id="id27">
    <path d="M3880.56 10228.5l-91.35 0 0 -820.11 404.51 0 0 185.12 -313.16 0 0 634.99 0 0z"/>
   </clipPath>
   <clipPath id="id28">
    <path d="M4833.18 9593.72l-639.37 0 0 -185.28 454.08 0 0 -215.92c36.41,-51.09 57.94,-113.76 57.94,-181.87l0 -1745.81 127.35 0 0 2328.88 0 0z"/>
   </clipPath>
   <clipPath id="id29">
    <path d="M5291.77 9593.63l-458.71 0 0 -2328.22 458.71 0 0 2328.22 0 0z"/>
   </clipPath>
   <clipPath id="id30">
    <path d="M2354.93 9202.57c-40.86,-53.11 -65.21,-119.37 -65.21,-191.91l0 -110.23 65.21 0 0 302.14zm0 -482.63l-65.21 0 0 -466.07 65.21 0 0 466.07zm0 -647.13l-65.21 0 0 -466.07 65.21 0 0 466.07zm0 -646.56l-65.21 0 0 -161.06 65.21 0 0 161.06 0 0z"/>
   </clipPath>
   <clipPath id="id31">
    <path d="M2354.93 7606.86l-65.21 0 0 -180.7 65.21 0 0 180.7 0 0z"/>
   </clipPath>
   <clipPath id="id32">
    <path d="M2354.93 8253.75l-65.21 0 0 -180.7 65.21 0 0 180.7 0 0z"/>
   </clipPath>
   <clipPath id="id33">
    <path d="M2354.93 8900.64l-65.21 0 0 -180.7 65.21 0 0 180.7 0 0z"/>
   </clipPath>
   <clipPath id="id34">
    <path d="M4647.99 9192.29l0 -1927.1 57.81 0 0 1745.47c0,67.97 -21.41,130.23 -57.81,181.63l0 0z"/>
   </clipPath>
   <clipPath id="id35">
    <path d="M3789.21 9366.85l-1434.28 0 0 -164.53c57.15,74.28 147.44,122.14 248.5,122.14l1185.78 0 0 42.39 0 0z"/>
   </clipPath>
   <clipPath id="id36">
    <path d="M3789.21 9408.4l-1434.28 0 0 -41.55 1434.28 0 0 41.55 0 0z"/>
   </clipPath>
   <clipPath id="id37">
    <path d="M4193.71 9408.4l-404.54 0 0 -83.95 404.54 0 0 83.95 0 0z"/>
   </clipPath>
   <clipPath id="id38">
    <path d="M4648.01 9408.39l-454.33 0 0 -83.93 198.57 0c105.54,0 198.97,-52.16 255.76,-132.13l0 216.06 0 0z"/>
   </clipPath>
   <clipPath id="id39">
    <path d="M3789.21 9324.24l-1185.78 0c-101.06,0 -191.35,-47.72 -248.5,-121.95l0 -301.65 1434.28 0 0 423.6zm0 -604.48l-1434.28 0 0 -466.03 1434.28 0 0 466.03zm0 -646.9l-1434.28 0 0 -466.03 1434.28 0 0 466.03zm0 -646.9l-1434.28 0 0 -160.84 1434.28 0 0 113.71 0 47.13 0 0z"/>
   </clipPath>
   <clipPath id="id40">
    <path d="M3789.21 7606.83l-1434.28 0 0 -180.67 1434.28 0 0 180.67 0 0z"/>
   </clipPath>
   <clipPath id="id41">
    <path d="M3789.21 8253.71l-1434.28 0 0 -180.64 1434.28 0 0 180.64 0 0z"/>
   </clipPath>
   <clipPath id="id42">
    <path d="M3789.21 8900.59l-1434.28 0 0 -180.63 1434.28 0 0 180.63 0 0z"/>
   </clipPath>
   <clipPath id="id43">
    <path d="M4193.71 9324.24l-404.54 0 0 -1945.41 0 -113.71 404.54 0 0 2059.12 0 0z"/>
   </clipPath>
   <clipPath id="id44">
    <path d="M4392.25 9324.24l-198.57 0 0 -2059.12 454.33 0 0 1927.15c-56.79,80.13 -150.22,131.97 -255.76,131.97l0 0z"/>
   </clipPath>
   <clipPath id="id45">
    <path d="M4161.66 12874.34l-281.02 0 0 -212.73c66.59,99.14 165.15,174.98 281.02,212.73l0 0z"/>
   </clipPath>
   <clipPath id="id46">
    <path d="M8079.01 12874.16l-3916.78 0c-116.26,-37.49 -215.58,-113.21 -282.19,-212.69l0 -1038.55 572.86 0 0 40.83c0,85 33.92,162.2 89.63,218.99l0 277.27 2892.16 0 0 -310.3c38.76,-51.97 61.77,-116.18 61.77,-185.96l0 -40.83 582.55 0 0 1251.24 0 0z"/>
   </clipPath>
   <clipPath id="id47">
    <path d="M8079.01 11622.96l-582.55 0 0 -555.95 582.55 0 0 555.95zm-3626.11 0l-572.86 0 0 -1394.5 313.68 0 0 838.55 259.18 0 0 555.95 0 0z"/>
   </clipPath>
   <clipPath id="id48">
    <path d="M8078.52 11067.14l-581.86 0 0 -838.66 581.86 0 0 838.66zm-3625.73 0l-258.98 0 0 -838.66 258.98 0 0 838.66 0 0z"/>
   </clipPath>
   <clipPath id="id49">
    <path d="M8078.86 10228.46l-582.85 0 0 -40.21c0,-69.82 -22.26,-134.24 -61.22,-186.19l0 -29.23 -24.65 0c-56.46,-60.33 -137.56,-98.12 -227.42,-98.12l-1890.86 0 0 -281.15 2787 0 0 634.9 0 0z"/>
   </clipPath>
   <clipPath id="id50">
    <path d="M4193.74 10228.52l-313.09 0 0 -635.02 313.09 0 0 635.02 0 0z"/>
   </clipPath>
   <clipPath id="id51">
    <path d="M4452.93 10228.52l-259.13 0 0 -635.02 639.27 0 0 281.12 -66.43 0c-173.32,0 -313.71,140.37 -313.71,313.52l0 40.38 0 0z"/>
   </clipPath>
   <clipPath id="id52">
    <path d="M5291.77 9874.67l-458.71 0 0 -281.14 458.71 0 0 281.14 0 0z"/>
   </clipPath>
   <clipPath id="id53">
    <path d="M4542.17 11882.65c-55.14,-56.54 -89.19,-133.78 -89.19,-219.05l0 -40.67 89.19 0 0 259.72 0 0z"/>
   </clipPath>
   <clipPath id="id54">
    <path d="M4542.17 11622.94l-89.19 0 0 -555.89 89.19 0 0 555.89 0 0z"/>
   </clipPath>
   <clipPath id="id55">
    <path d="M4542.17 11067.14l-89.19 0 0 -838.66 89.19 0 0 838.66 0 0z"/>
   </clipPath>
   <clipPath id="id56">
    <path d="M7410.51 9972.85l-2118.84 0 0 -98.15 1890.78 0c90.01,0 170.89,37.72 228.06,98.15l0 0z"/>
   </clipPath>
   <clipPath id="id57">
    <path d="M4542.1 10228.51l-89.08 0 0 -40.25c0,-173.2 140.36,-313.59 313.54,-313.59l66.56 0 0 98.23 -291.02 0 0 255.61 0 0z"/>
   </clipPath>
   <clipPath id="id58">
    <path d="M5291.77 9972.85l-458.71 0 0 -98.15 458.71 0 0 98.15 0 0z"/>
   </clipPath>
   <clipPath id="id59">
    <path d="M7434.93 11849.82l0 -226.85 61.27 0 0 40.67c0,69.67 -22.77,134.14 -61.27,186.18l0 0z"/>
   </clipPath>
   <clipPath id="id60">
    <path d="M7496.2 11622.94l-61.27 0 0 -555.89 61.27 0 0 555.89 0 0z"/>
   </clipPath>
   <clipPath id="id61">
    <path d="M7496.2 11067.14l-61.27 0 0 -838.66 61.27 0 0 838.66 0 0z"/>
   </clipPath>
   <clipPath id="id62">
    <path d="M7496.22 10228.48l-61.28 0 0 -226.45c38.48,52.09 61.28,116.46 61.28,186.16l0 40.29 0 0z"/>
   </clipPath>
   <clipPath id="id63">
    <path d="M7435.08 12160.07l-2892.54 0 0 -277.5c56.25,58.4 135.66,94.57 224.16,94.57l2416.1 0c103.39,0 195.21,-50.01 252.28,-127.25l0 310.18 0 0z"/>
   </clipPath>
   <clipPath id="id64">
    <path d="M7434.93 10002.02c-7.55,-10.23 -15.7,-19.98 -24.45,-29.18l24.45 0 0 29.18 0 0z"/>
   </clipPath>
   <clipPath id="id65">
    <path d="M7182.8 11977.13l-2416.1 0c-88.5,0 -167.91,-36.13 -224.16,-94.55l0 -259.62 2892.54 0 0 226.93c-57.07,77.18 -148.89,127.24 -252.28,127.24l0 0z"/>
   </clipPath>
   <clipPath id="id66">
    <path d="M7435.08 11623l-2892.54 0 0 -555.99 2892.54 0 0 555.99 0 0z"/>
   </clipPath>
   <clipPath id="id67">
    <path d="M7435.08 11067.11l-2892.54 0 0 -838.5 749.4 0 2143.14 0 0 838.5 0 0z"/>
   </clipPath>
   <clipPath id="id68">
    <path d="M7434.92 10228.5l-2143.18 0 0 -255.62 2118.7 0c8.57,9.15 17.14,18.92 24.48,29.16l0 226.46 0 0z"/>
   </clipPath>
   <clipPath id="id69">
    <path d="M5291.64 10228.54l-749.4 0 0 -255.67 290.86 0 0 255.67 458.54 0 0 0z"/>
   </clipPath>
   <clipPath id="id70">
    <path d="M5291.77 10228.5l-458.71 0 0 -255.62 458.71 0 0 255.62 0 0z"/>
   </clipPath>
   <clipPath id="id71">
    <path d="M15594.25 8358.44l-653.16 0c-141.82,-100.96 -234.2,-268.78 -234.2,-456.27 0,-76.05 14.31,-149.47 41.64,-215.02l3.9 -9.18c5.2,-11.8 11.71,-22.29 16.91,-34.09 3.91,-6.56 7.81,-14.42 11.71,-20.98 3.91,-6.55 7.81,-14.42 11.71,-20.98 7.81,-10.49 14.32,-20.98 22.12,-31.46l5.21 -7.87c32.53,-41.96 71.56,-79.98 115.8,-111.45l383.83 0c65.05,0 124.9,-19.66 174.35,-53.75l11.71 0c100.18,47.2 187.36,124.55 247.21,226.82 27.32,49.82 48.14,100.96 59.85,153.4 1.3,3.94 1.3,6.56 2.6,10.49 2.61,13.11 5.21,26.22 6.51,39.34 1.3,6.55 1.3,13.11 2.6,18.35 1.3,11.8 1.3,22.29 2.6,32.78 0,7.87 0,17.04 0,24.91 0,9.18 0,18.36 0,26.22 -1.3,10.49 -1.3,20.98 -2.6,32.78 -1.3,5.24 -1.3,11.8 -2.6,18.36 -1.3,13.11 -3.9,26.22 -6.51,39.33 -1.3,3.93 -1.3,6.55 -2.6,10.49 -11.71,52.44 -32.53,103.58 -59.85,153.4 -28.63,48.51 -63.76,91.78 -102.79,128.49l-7.81 6.55c-10.4,9.18 -20.81,18.36 -31.22,26.23 -5.21,3.93 -10.41,7.86 -14.31,11.8 -1.31,0 -2.61,1.31 -2.61,1.31zm-1497.58 0l-247.22 0 0 -907.3 245.92 0 -48.15 85.23 309.67 178.31c-11.71,56.38 -18.22,112.76 -19.52,169.13 0,6.56 0,14.43 0,20.98 0,6.56 0,13.11 0,19.67 1.3,56.38 7.81,112.75 19.52,169.13l-309.67 179.62 49.45 85.23zm2131.23 -237.31l-50.75 -28.85c13.02,-61.62 19.52,-125.87 19.52,-190.11 0,-64.25 -6.5,-127.18 -18.21,-186.18l49.44 -28.84 0 433.98zm-340.9 -911.23c-58.55,-53.76 -124.9,-98.34 -196.46,-135.05l0 -2675.99 -57.25 0c-3.91,-169.13 -143.13,-305.49 -313.57,-305.49l-1065.62 0 -165.24 -285.82 2139.04 0 0 3275.17 -29.93 -52.44 -310.97 179.62zm-3715.99 -1465.83l0 -666.05 -459.29 0 0 -1244.25c24.72,-9.18 48.14,-18.35 72.86,-26.22l605.02 0c167.84,53.75 321.38,150.78 442.38,285.82l-242.01 0c-170.44,0 -308.36,136.36 -313.57,305.49l-7.8 0 0 1332.1c-32.53,6.55 -65.06,10.49 -97.59,13.11l0 0z"/>
   </clipPath>
   <clipPath id="id72">
    <path d="M12268.03 5831.04l-97.09 0 0 -86.9c32.61,-2.96 65.22,-7.09 97.09,-13.01l0 99.91zm1985.55 -1737.43l-1422.28 0c-120.8,-135.37 -274.22,-232.32 -440.98,-285.53l1697.98 0 165.28 285.53zm-2541.42 -259.52l0 -26.01 72.64 0c-24.46,7.69 -48.92,16.55 -72.64,26.01l0 0z"/>
   </clipPath>
   <clipPath id="id73">
    <path d="M16227.82 8358.75l-634.11 0c0.64,-0.4 1.93,-1.2 2.57,-1.61 5.13,-4.01 10.26,-7.62 15.39,-11.63 10.25,-8.02 20.51,-16.85 30.77,-25.67l7.7 -7.23c39.11,-36.9 73.73,-79.83 102.58,-128.77 28.21,-48.95 48.09,-100.7 60.27,-153.25 0.64,-3.21 1.28,-6.82 1.92,-10.03 3.21,-13.24 5.13,-26.48 7.06,-39.72 1.28,-6.42 1.92,-12.83 2.56,-18.85 0.64,-10.83 1.92,-21.67 1.92,-32.1 0.65,-8.42 0.65,-17.25 0.65,-25.67 0,-8.83 0,-17.25 -0.65,-25.68 0,-10.83 -1.28,-21.66 -1.92,-32.09 -0.64,-6.42 -1.28,-12.44 -2.56,-18.86 -1.93,-13.23 -3.85,-26.47 -7.06,-40.11 -0.64,-3.21 -1.28,-6.42 -1.92,-9.63 -12.18,-52.56 -32.06,-104.31 -60.27,-153.25 -59.63,-103.1 -146.82,-179.73 -246.2,-227.07l183.37 0 0 -323.34c71.81,36.91 137.85,82.24 197.47,135.6l310.33 -179.33 30.13 52.15 0 604.17 -50.01 28.89c12.18,59.77 19.23,122.35 19.23,186.14 0,64.99 -7.05,128.78 -19.87,190.56l50.65 29.29 0 237.09zm-1286.17 0l-845.04 0 -50.01 -86.25 309.68 -178.93c-11.55,-56.16 -17.96,-112.73 -18.6,-169.29 -0.64,-6.42 0,-13.24 0,-19.66 0,-6.82 -0.64,-14.04 0,-20.86 0.64,-56.17 7.05,-113.13 18.6,-169.3l-309.68 -178.92 49.36 -85.05 839.92 0c-44.24,32.5 -82.71,70.61 -115.4,112.33l-5.78 8.42c-7.69,10.03 -14.74,20.46 -21.15,31.3 -4.49,6.41 -8.98,13.23 -12.83,20.46 -3.84,6.82 -7.69,13.64 -11.54,20.86 -5.77,11.23 -11.54,22.46 -16.03,34.1l-4.48 9.22c-26.93,66.2 -42.32,138.41 -42.32,214.63 0,188.15 92.97,355.04 235.3,456.94l0 0z"/>
   </clipPath>
   <clipPath id="id74">
    <path d="M13849.69 8358.66l-386.9 0 0 -907.91 386.9 0 0 907.91zm-1581.68 -1982.58l-97.23 0 0 -544.75 97.23 0 0 544.75 0 0z"/>
   </clipPath>
   <clipPath id="id75">
    <path d="M13462.85 8358.68l-1292.06 0 0 -100.54 887.58 0 0 -78.45 -887.58 0 0 -215.03 887.58 0 0 -78.46 -887.58 0 0 -1509.86 97.41 0 0 1021.1 147.47 0c50.07,33.71 110.31,53.47 174.86,53.47l872.32 0 0 907.77 0 0z"/>
   </clipPath>
   <clipPath id="id76">
    <path d="M12091.46 5747.14c-134.25,0 -262.27,-26.54 -379.22,-74.56l0 -594.54 458.71 0 0 665.98c-26.23,2.15 -52.73,3.12 -79.49,3.12l0 0z"/>
   </clipPath>
   <clipPath id="id77">
    <path d="M12170.95 5831.09l-458.71 0 0 -158.56c116.95,48.12 244.97,74.69 379.22,74.69 26.76,0 53.26,-1.12 79.49,-3.17l0 87.04 0 0z"/>
   </clipPath>
   <clipPath id="id78">
    <path d="M12170.95 6376.34l-458.71 0 0 -545.29 458.71 0 0 545.29 0 0z"/>
   </clipPath>
   <clipPath id="id79">
    <path d="M12170.95 8358.58l-458.71 0 0 -1982.33 458.71 0 0 1510.18 -179.67 0 0 77.84 179.67 0 0 215.34 -179.67 0 0 78.4 179.67 0 0 100.57 0 0z"/>
   </clipPath>
   <clipPath id="id80">
    <path d="M15320.16 7450.66l-383.98 0c15.4,-11.32 31.76,-21.93 49.08,-31.79 12.99,-7.68 26.95,-14.82 40.42,-21.31l469.14 0c-50.04,33.51 -110.19,53.1 -174.66,53.1zm-1224.1 0l-246.36 0 0 -53.1 276.68 0 -30.32 53.1 0 0z"/>
   </clipPath>
   <clipPath id="id81">
    <path d="M14936.17 7450.66l-840.45 0 30.65 -53.1 899.22 0c-13.5,6.49 -27.27,13.63 -40.49,21.31 -17.15,9.86 -33.46,20.47 -48.93,31.79l0 0z"/>
   </clipPath>
   <clipPath id="id82">
    <path d="M13849.66 7450.66l-386.88 0 0 -53.1 386.88 0 0 53.1 0 0z"/>
   </clipPath>
   <clipPath id="id83">
    <path d="M13462.91 7450.66l-872.32 0c-64.88,0 -124.94,-19.59 -174.72,-53.1l1047.04 0 0 53.1 0 0z"/>
   </clipPath>
   <clipPath id="id84">
    <path d="M15633.22 4398.98l-1889.84 0 514.71 -297.33 -4.86 -7.78 1067.28 0c169.95,0 308.82,135.88 312.71,305.11zm-2616.25 0l-740.01 0c4.86,-169.23 142.76,-305.11 313.68,-305.11l240.84 0c44.68,49.92 84.49,105.08 119.45,165.23 26.22,45.59 48.56,92.29 66.04,139.88l0 0z"/>
   </clipPath>
   <clipPath id="id85">
    <path d="M13743.01 4398.98l-725.68 0c-18.11,-47.59 -40.44,-94.29 -66.55,-139.88 -34.96,-60.15 -74.97,-115.31 -119.61,-165.23l1422.3 0 4.63 7.78 -515.09 297.33 0 0z"/>
   </clipPath>
   <clipPath id="id86">
    <path d="M15506.3 7397.66l-11.62 0c1.61,-0.86 3.15,-2.57 4.69,-3.43 2.31,0.86 4.62,2.57 6.93,3.43zm183.67 -323.63c-18.43,-9.42 -37.24,-17.98 -56.37,-25.68l0 -2641.21c0,-2.57 0,-5.14 -0.06,-8.56l56.43 0 0 2675.45 0 0z"/>
   </clipPath>
   <clipPath id="id87">
    <path d="M15689.98 7397.52l-183.71 0c-2.26,-1.07 -4.59,-2.14 -6.85,-3.21 81.08,-56.6 134.2,-150.71 134.2,-257.16l0 -89.18c19.15,8.14 37.88,16.93 56.36,26.37l0 323.18 0 0z"/>
   </clipPath>
   <clipPath id="id88">
    <path d="M12268.02 5731.31l0 -1332.3 8.99 0c-0.07,2.68 -0.1,5.74 -0.1,8.43l0 1322.34c-2.96,0.38 -5.93,1.15 -8.89,1.53l0 0z"/>
   </clipPath>
   <clipPath id="id89">
    <path d="M12276.91 5831.1l-8.89 0 0 -99.69c2.96,-0.58 5.93,-1.09 8.89,-1.68l0 101.37 0 0z"/>
   </clipPath>
   <clipPath id="id90">
    <path d="M12276.91 6376.39l-8.89 0 0 -545.22 8.89 0 0 545.22 0 0z"/>
   </clipPath>
   <clipPath id="id91">
    <path d="M12415.8 7397.65l-147.78 0 0 -1021.41 8.87 0 0 760.78c0,108.47 55.11,204.16 138.91,260.63l0 0z"/>
   </clipPath>
   <clipPath id="id92">
    <path d="M15494.81 7397.66l-468.99 0c76.57,-36.82 158.88,-53.94 239.28,-53.94 81.36,0 160.8,17.12 234.5,50.51 -1.91,0.86 -2.87,2.57 -4.79,3.43zm-1368.71 0l-276.61 0 0 -1026.52c0,-68.5 -12.44,-133.56 -35.41,-193.49l444.11 -768.82 -554.18 -320.2c22.97,-108.73 34.45,-221.74 34.45,-338.18 0,-113.01 -11.48,-223.45 -32.54,-329.61l37.33 -22.26 1890.35 0c0,3.42 0,5.99 0,8.56l0 2641.21c-23.93,-11.13 -48.81,-19.69 -73.7,-28.25l0 -357.87 -583.86 0 0 357.87c-53.6,17.97 -106.24,40.23 -156.01,67.63 -5.74,3.43 -11.49,6.85 -17.23,10.27 -5.74,3.43 -11.48,6.85 -17.23,10.28 -48.81,29.11 -94.75,63.35 -137.82,101.02l-309.16 -178.93 -212.49 367.29zm-1849.19 -1667.78l0 -1322.74c0,-2.57 0,-5.14 0,-8.56l740.83 0c16.27,43.66 29.67,88.18 40.2,131.84 0.95,6 2.87,11.99 3.83,17.98 4.78,23.97 9.57,47.09 12.44,71.06 0.95,11.13 2.87,22.26 3.83,33.39 1.91,18.84 3.82,37.67 4.78,56.51 0,15.41 0.96,30.82 0.96,45.37 0,15.41 -0.96,30.82 -0.96,46.23 -0.96,18.84 -2.87,37.67 -4.78,56.51 -0.96,11.13 -2.88,22.26 -3.83,33.39 -3.83,23.97 -7.66,47.09 -12.44,71.06 -0.96,5.99 -2.88,11.99 -3.83,17.98 -22.02,92.46 -57.43,184.07 -107.2,271.4 -50.73,87.32 -111.99,163.52 -181.86,228.59 -4.79,4.28 -8.61,8.56 -13.4,11.98 -18.19,16.27 -36.37,31.68 -55.51,46.24 -8.62,6.85 -17.23,13.69 -26.8,20.54 -15.32,11.13 -30.63,21.41 -46.9,31.68 -12.45,8.56 -25.85,16.27 -39.25,23.97 -12.44,7.71 -25.84,14.56 -39.24,21.41 -17.23,9.41 -34.46,17.12 -51.68,24.83 -10.53,5.13 -20.1,9.41 -30.63,13.69 -22.02,8.56 -44.99,17.13 -67.96,24.83 -5.74,1.71 -11.49,3.43 -17.23,5.14 -33.5,10.27 -67.96,18.83 -103.37,25.68l0 0z"/>
   </clipPath>
   <clipPath id="id93">
    <path d="M13813.85 6177.82c-77.43,-203.04 -274.11,-346.91 -504.13,-346.91l-1032.55 0 0 -101.01c35.04,-6.64 69.51,-15.31 103.42,-25.51 5.65,-2.04 11.3,-3.57 16.96,-5.61 23.17,-7.66 45.77,-15.82 67.82,-24.49 10.17,-4.59 20.34,-8.67 30.51,-13.27 17.52,-8.16 34.48,-16.32 51.43,-24.99 13.57,-7.15 27.13,-14.29 40.13,-21.94 13,-7.65 26,-15.31 39,-23.47 15.82,-10.2 31.65,-20.92 46.91,-32.14 9.04,-6.63 18.08,-13.26 27.12,-20.41 18.65,-14.28 37.3,-29.59 54.82,-45.91 4.53,-4.08 9.05,-8.16 13.57,-12.25 70.08,-65.3 131.68,-141.82 181.98,-228.55 49.74,-87.24 85.34,-178.56 106.82,-271.92 1.69,-5.61 2.82,-11.73 3.95,-17.86 5.09,-23.46 9.05,-46.93 12.44,-70.4 1.69,-11.22 2.82,-22.45 3.95,-33.67 2.26,-18.88 3.39,-37.75 4.52,-56.63 0.57,-15.3 1.14,-30.61 0.57,-45.91 0.57,-14.8 0,-30.1 -0.57,-45.41 -1.13,-18.87 -2.26,-37.75 -4.52,-57.14 -1.13,-10.71 -2.26,-21.93 -3.95,-33.16 -3.39,-23.47 -7.35,-46.93 -12.44,-70.91 -1.13,-5.61 -2.26,-11.74 -3.39,-17.35 -10.74,-44.38 -24.3,-88.77 -40.69,-132.13l725.67 0 -37.3 21.43c21.48,107.13 32.78,217.33 32.78,330.58 0,115.81 -11.87,228.56 -34.47,337.74l553.86 319.87 -444.22 769.33 0 0z"/>
   </clipPath>
   <clipPath id="id94">
    <path d="M15025.74 7397.58l-899.27 0 211.82 -366.9 309.72 178.82c42.89,-38.3 88.8,-72.08 137.32,-101.35 5.63,-3.44 11.69,-6.67 17.32,-10.11 6.07,-3.23 11.7,-6.89 17.77,-9.9 49.38,-27.33 101.36,-50.14 155.94,-68.21l0 -357.86 583.48 0 0 357.86c25.12,8.39 49.82,17.64 73.64,27.97l0 89.3c0,106.52 -52.85,200.56 -134.28,257.15 -73.21,-33.35 -152.91,-50.78 -233.92,-50.78 -80.57,0 -162.44,17.43 -239.54,54.01l0 0z"/>
   </clipPath>
   <clipPath id="id95">
    <path d="M13849.81 7397.35l-387.15 0 0 -1020.98 -1185.75 0 0 -545.16 1033.14 0c230.04,0 426.31,143.6 504.19,346.18 22.96,60.32 35.57,125.6 35.57,193.57l0 1026.39 0 0z"/>
   </clipPath>
   <clipPath id="id96">
    <path d="M13462.77 7397.65l-1047.06 0c-83.84,-56.47 -138.93,-152.16 -138.93,-260.63l0 -760.78 1185.99 0 0 1021.41 0 0z"/>
   </clipPath>
   <clipPath id="id97">
    <path d="M3788.9 6629.96l-2095.8 0 0 -331.54c14.57,9.47 31.23,14.64 48.93,14.64l699.64 0c46.85,28.41 102.03,44.78 161.38,44.78l1185.85 0c0,4.3 0,8.61 0,12.91l0 259.21zm-2095.8 -483.1l0 -495.16c14.57,9.47 31.23,14.64 48.93,14.64l547.64 0 0 378.04c0,31 4.16,60.28 12.49,87.84l-560.13 0c-17.7,0 -34.36,5.16 -48.93,14.64zm3140.06 -316.04l-127.02 0 0 -164.48 127.02 0 0 164.48zm-3140.06 -330.68l0 -495.16c14.57,9.47 31.23,14.64 48.93,14.64l547.64 0 0 465.88 -547.64 0c-17.7,0 -34.36,5.16 -48.93,14.64zm3140.06 -14.64l-127.02 0 0 -465.88 585.12 0 0 58.55 -458.1 0 0 407.33zm-3140.06 -632.95l0 -494.29c14.57,8.61 31.23,13.77 48.93,13.77l547.64 0 0 466.75 -547.64 0c-17.7,0 -34.36,5.16 -48.93,13.77zm3598.16 -13.77l-585.12 0 0 -466.75 585.12 0 0 466.75zm-3598.16 -632.95l0 -539.07 3598.16 0 0 525.29 -592.41 0c-29.15,-142.95 -155.13,-249.73 -307.13,-249.73l-1788.67 0c-150.97,0 -276.94,106.78 -307.14,249.73l-553.88 0c-17.7,0 -34.36,5.17 -48.93,13.78l0 0z"/>
   </clipPath>
   <clipPath id="id98">
    <path d="M5291.26 4372.48l-585.12 0 0 -116.9c0,-21.86 -2.08,-43.15 -7.29,-63.79l592.41 0 0 180.69zm-3001.59 0l-547.64 0c-17.7,0 -34.36,-5.27 -48.93,-14.31l0 -152.07c14.57,-9.05 31.23,-14.31 48.93,-14.31l553.88 0c-4.16,20.64 -6.24,41.93 -6.24,63.79l0 116.9 0 0z"/>
   </clipPath>
   <clipPath id="id99">
    <path d="M5291.26 5019.3l-585.12 0 0 -180.63 585.12 0 0 180.63zm-3001.59 0l-547.64 0c-17.7,0 -34.36,-5.27 -48.93,-14.24l0 -152.15c14.57,-9.04 31.23,-14.24 48.93,-14.24l547.64 0 0 180.63 0 0z"/>
   </clipPath>
   <clipPath id="id100">
    <path d="M4833.03 5666.22l-127.56 0 0 -180.69 127.56 0 0 180.69zm-2543 0l-547.6 0c-18.22,0 -34.62,-5.26 -49.2,-14.31l0 -152.14c14.58,-8.97 30.98,-14.24 49.2,-14.24l547.6 0 0 180.69 0 0z"/>
   </clipPath>
   <clipPath id="id101">
    <path d="M2441.19 6313.11l-699.11 0c-17.8,0 -34.68,-5.26 -48.78,-14.31l0 -152.14c14.1,-8.97 30.98,-14.24 48.78,-14.24l560.16 0c22.2,76.25 72.6,140.47 138.95,180.69l0 0z"/>
   </clipPath>
   <clipPath id="id102">
    <path d="M4193.56 6630.17l-404.37 0 0 -259.22c0,-4.27 0,-8.54 0,-12.81l603.18 0c173.11,0 313.47,-140.41 313.47,-313.48l0 -213.51 127.18 0 0 545.33 -639.46 0 0 253.69 0 0z"/>
   </clipPath>
   <clipPath id="id103">
    <path d="M4833.18 6630.19l-639.37 0 0 -253.8 639.37 0 0 253.8 0 0z"/>
   </clipPath>
   <clipPath id="id104">
    <path d="M5291.77 5831.17l-458.71 0 0 -165.05 458.71 0 0 165.05zm0 -345.66l-458.71 0 0 -407.46 458.71 0 0 407.46 0 0z"/>
   </clipPath>
   <clipPath id="id105">
    <path d="M5291.77 5666.22l-458.71 0 0 -180.68 458.71 0 0 180.68 0 0z"/>
   </clipPath>
   <clipPath id="id106">
    <path d="M5291.77 6376.34l-458.71 0 0 -545.29 458.71 0 0 545.29 0 0z"/>
   </clipPath>
   <clipPath id="id107">
    <path d="M5291.77 7265.07l0 0 0 -634.87 -458.71 0 0 -253.79 458.71 0 0 888.66 0 0z"/>
   </clipPath>
   <clipPath id="id108">
    <path d="M2289.57 7265.18l-596.36 0 0 -319.45c14.43,9.08 31.26,14.26 48.7,14.26l688.93 0c-84.76,56.11 -141.27,152.41 -141.27,261.86l0 43.33zm-596.36 -471.67l0 -163.34 2096.26 0 0 149.08 -2047.56 0c-17.44,0 -34.27,5.37 -48.7,14.26l0 0z"/>
   </clipPath>
   <clipPath id="id109">
    <path d="M2430.84 6960l-688.93 0c-17.44,0 -34.27,-5.28 -48.7,-14.28l0 -152.12c14.43,-9.05 31.26,-14.27 48.7,-14.27l2047.56 0 0 129.02 -1186.1 0c-63.72,0 -123.24,19 -172.53,51.65l0 0z"/>
   </clipPath>
   <clipPath id="id110">
    <path d="M4193.71 6908.39l-404.54 0 0 -129.07 0 -149.18 404.54 0 0 278.25 0 0z"/>
   </clipPath>
   <clipPath id="id111">
    <path d="M4833.07 7265.18l-127.21 0 0 -43.33c0,-173.15 -140.39,-313.53 -313.71,-313.53l-198.35 0 0 -278.15 639.27 0 0 635.01 0 0z"/>
   </clipPath>
   <clipPath id="id112">
    <path d="M5291.77 7265.13l-458.71 0 0 -634.9 458.71 0 0 634.9 0 0z"/>
   </clipPath>
   <clipPath id="id113">
    <path d="M2354.76 7265.13l-64.97 0 0 -43.24c0,-109.43 55.88,-205.87 141.21,-261.92l1358 0 0 120.13 -1434.24 0 0 185.03 0 0z"/>
   </clipPath>
   <clipPath id="id114">
    <path d="M3789.17 6959.99l-1358.1 0c49.41,-32.64 108.63,-51.61 172.17,-51.61l1185.93 0 0 51.61 0 0z"/>
   </clipPath>
   <clipPath id="id115">
    <path d="M4193.71 7080.07l-404.54 0 0 -120.1 0 -51.59 404.54 0 0 171.69 0 0z"/>
   </clipPath>
   <clipPath id="id116">
    <path d="M4705.72 7265.18l-57.68 0 0 -185.1 -454.28 0 0 -171.71 198.45 0c173.2,0 313.51,140.38 313.51,313.58l0 43.23 0 0z"/>
   </clipPath>
   <clipPath id="id117">
    <path d="M3789.21 7265.2l-1434.28 0 0 -185.12 1434.28 0 0 185.12 0 0z"/>
   </clipPath>
   <clipPath id="id118">
    <path d="M4193.71 7265.2l-404.54 0 0 -185.12 404.54 0 0 185.12 0 0z"/>
   </clipPath>
   <clipPath id="id119">
    <path d="M4648.01 7265.2l-454.33 0 0 -185.12 454.33 0 0 185.12 0 0z"/>
   </clipPath>
   <clipPath id="id120">
    <path d="M3789.45 6358.28l-1186.36 0c-58.9,0 -114.29,-16.83 -161.97,-44.87l1351.13 0c-1.4,14.72 -2.8,29.45 -2.8,44.87zm55.39 -225.77l-1542.55 0c-8.41,-28.05 -12.62,-57.5 -12.62,-87.65l0 -378.62 2416.19 0 0 164.77 -376.52 0c-213.16,0 -396.86,122.7 -484.5,301.5zm861.02 -647.17l-2416.19 0 0 -466.27 2416.19 0 0 466.27zm0 -646.46l-2416.19 0 0 -466.27 2416.19 0 0 466.27zm-6.31 -647.17l-2403.57 0c29.45,-142.33 155.66,-249.61 307.11,-249.61l1789.35 0c150.75,0 277.66,107.28 307.11,249.61l0 0z"/>
   </clipPath>
   <clipPath id="id121">
    <path d="M4705.86 4372.48l-2416.19 0 0 -116.9c0,-21.86 2.11,-43.15 6.31,-63.79l2403.57 0c4.2,20.64 6.31,41.93 6.31,63.79l0 116.9 0 0z"/>
   </clipPath>
   <clipPath id="id122">
    <path d="M4705.86 5019.3l-2416.19 0 0 -180.63 2416.19 0 0 180.63 0 0z"/>
   </clipPath>
   <clipPath id="id123">
    <path d="M4705.86 5666.22l-2416.19 0 0 -180.69 2416.19 0 0 180.69 0 0z"/>
   </clipPath>
   <clipPath id="id124">
    <path d="M3792.2 6313.11l-1350.77 0c-66.87,-40.22 -117.14,-104.44 -139.28,-180.69l1542.62 0c-27.67,55.53 -45.66,116.4 -52.57,180.69l0 0z"/>
   </clipPath>
   <clipPath id="id125">
    <path d="M4392.27 6358.07l-602.85 0c0.28,-15.07 1.12,-30.13 2.81,-45.03 6.75,-64.19 25.03,-125.14 52.3,-180.6 88.01,-178.55 271.9,-301.3 484.48,-301.3l376.78 0 0 213.48c0,173.07 -140.31,313.45 -313.52,313.45l0 0z"/>
   </clipPath>
   <clipPath id="id126">
    <path d="M9592.68 10228.48l-707.57 0 0 -419.76 707.57 0 0 419.76 0 0z"/>
   </clipPath>
   <clipPath id="id127">
    <path d="M10620.83 10228.48l-707.58 0 0 -419.76 707.58 0 0 419.76 0 0z"/>
   </clipPath>
   <clipPath id="id128">
    <path d="M11648.97 10228.48l-707.58 0 0 -419.76 707.58 0 0 419.76 0 0z"/>
   </clipPath>
   <clipPath id="id129">
    <path d="M13058.3 7964.49l-887.31 0 0 -78.11 887.31 0 0 78.11 0 0z"/>
   </clipPath>
   <clipPath id="id130">
    <path d="M12170.92 7964.47l-179.66 0 0 -78.09 179.66 0 0 78.09 0 0z"/>
   </clipPath>
   <clipPath id="id131">
    <path d="M13058.3 8257.87l-887.31 0 0 -78.11 887.31 0 0 78.11 0 0z"/>
   </clipPath>
   <clipPath id="id132">
    <path d="M12170.92 8257.9l-179.66 0 0 -78.11 179.66 0 0 78.11 0 0z"/>
   </clipPath>
   <clipPath id="id133">
    <path d="M12170.9 8551.26l-179.63 0 0 -78.11 179.63 0 0 78.11 0 0z"/>
   </clipPath>
  <linearGradient id="id134" gradientUnits="userSpaceOnUse" x1="7595.58" y1="12387.26" x2="10043.3" y2="14834.98">
   <stop offset="0" style="stop-opacity:1; stop-color:#9ABBE2"/>
   <stop offset="1" style="stop-opacity:1; stop-color:#709FD4"/>
  </linearGradient>
  <linearGradient id="id135" gradientUnits="userSpaceOnUse" x1="11594.57" y1="10194.89" x2="15082.2" y2="13682.52">
   <stop offset="0" style="stop-opacity:1; stop-color:#4B5BA7"/>
   <stop offset="1" style="stop-opacity:1; stop-color:#7899CF"/>
  </linearGradient>
  <linearGradient id="id136" gradientUnits="userSpaceOnUse" x1="7780.4" y1="12123.84" x2="9858.5" y2="14201.93">
   <stop offset="0" style="stop-opacity:1; stop-color:#9ABBE2"/>
   <stop offset="0.231373" style="stop-opacity:1; stop-color:#9ABBE2"/>
   <stop offset="1" style="stop-opacity:1; stop-color:#CDE1F4"/>
  </linearGradient>
  <linearGradient id="id137" gradientUnits="userSpaceOnUse" x1="5338.3" y1="5232.13" x2="12318.18" y2="12211.53">
   <stop offset="0" style="stop-opacity:1; stop-color:#3E5CA7"/>
   <stop offset="1" style="stop-opacity:1; stop-color:#577ABB"/>
  </linearGradient>
  <linearGradient id="id138" gradientUnits="userSpaceOnUse" x1="5002.88" y1="6165.14" x2="12636" y2="13798.26">
   <stop offset="0" style="stop-opacity:1; stop-color:#CDE1F4"/>
   <stop offset="1" style="stop-opacity:1; stop-color:#9ABBE2"/>
  </linearGradient>
  <linearGradient id="id139" gradientUnits="userSpaceOnUse" xlink:href="#id137" x1="5338.3" y1="5232.13" x2="12318.18" y2="12211.53">
  </linearGradient>
  <linearGradient id="id140" gradientUnits="userSpaceOnUse" xlink:href="#id137" x1="5338.3" y1="5231.76" x2="12318.18" y2="12211.65">
  </linearGradient>
  <linearGradient id="id141" gradientUnits="userSpaceOnUse" xlink:href="#id137" x1="5338.36" y1="5232.13" x2="12318.15" y2="12211.53">
  </linearGradient>
  <linearGradient id="id142" gradientUnits="userSpaceOnUse" xlink:href="#id135" x1="5338.3" y1="5231.76" x2="12318.18" y2="12211.65">
  </linearGradient>
 </defs>
 <g id="Camada_x0020_1">
  <metadata id="CorelCorpID_0Corel-Layer"/>
  <path class="fil0" d="M12769 5479.94c-4.48,4.16 -9,8.22 -13.55,12.28 -17.81,16.12 -36.23,31.39 -55.07,46.07 -8.82,6.84 -17.81,13.55 -26.88,20.11 -15.41,11.18 -31.22,21.87 -47.2,32.14 -12.77,8.18 -25.72,16.05 -38.88,23.63 -13.12,7.62 -26.42,14.89 -39.9,21.87 -16.89,8.72 -34.04,17.04 -51.5,24.8 -10.16,4.56 -20.43,8.97 -30.73,13.2 -22.15,8.96 -44.62,17.32 -67.52,24.73 -5.79,1.87 -11.57,3.74 -17.39,5.54 -91.48,27.69 -188.38,42.89 -288.93,42.89 -550.33,0 -996.42,-446.12 -996.42,-996.42 0,-134.79 27.06,-263.1 75.53,-380.4 2.33,-5.46 4.66,-10.93 7.06,-16.37 8.99,-20.63 18.87,-40.71 29.17,-60.53 6.56,-12.56 13.3,-25.01 20.43,-37.29 7.05,-12.35 14.5,-24.34 22.08,-36.34 12.07,-18.84 24.45,-37.46 37.82,-55.52 3.53,-4.8 7.09,-9.56 10.72,-14.33 77.3,-100.57 174.91,-188.24 291.61,-255.58 476.57,-275.17 1085.99,-111.87 1361.16,364.7 50.27,87.1 85.55,178.61 107.35,271.71 1.34,5.89 2.57,11.81 3.81,17.71 5.04,23.56 9.1,47.23 12.35,70.94 1.51,11.01 2.85,22.05 3.98,33.13 1.98,19.01 3.35,38.06 4.27,57.11 0.64,15.1 1.02,30.23 0.99,45.37 0.03,15.2 -0.32,30.41 -0.99,45.61 -0.92,18.95 -2.29,37.89 -4.27,56.83 -1.13,11.19 -2.47,22.34 -3.98,33.41 -3.28,23.6 -7.31,47.17 -12.32,70.63 -1.23,6.03 -2.5,12.03 -3.88,17.99 -21.8,93.06 -57.08,184.57 -107.31,271.6 -50.27,87.07 -111.87,163.41 -181.61,228.78zm969.78 -729.16c0,-113.13 -11.43,-223.52 -33.12,-330.23l552.34 -318.91 -517.31 -895.99 -550.65 317.89c-166.69,-149.3 -363.96,-264.9 -581.27,-336.76l0 -634.65 -1034.63 0 0 634.65c-96.63,31.96 -189.34,72.35 -277.14,120.79 -10.44,5.71 -20.64,11.89 -30.98,17.82 -10.33,5.99 -20.77,11.74 -30.97,17.95 -85.83,51.82 -167.22,111.9 -243.17,179.64l-549.63 -317.33 -517.31 895.99 549.63 317.32c-20.64,99.63 -32,200.13 -33.98,300.36 -0.28,12.13 -0.03,24.27 -0.07,36.4 0.04,11.71 -0.21,23.46 0.07,35.17 1.98,100.23 13.3,200.77 33.98,300.43l-549.63 317.32 517.31 896.02 549.63 -317.32c170.89,152.26 369.64,265.32 582.26,335l0 635.84 1034.63 0 0 -637.82c103.25,-34.53 204.61,-79.83 302.54,-136.38 100.36,-57.93 192.19,-124.96 275.31,-199.18l554.07 319.86 517.31 -896.02 -554.07 -319.86c22.75,-109.11 34.85,-222.14 34.85,-338z"/>
  <path class="fil0" d="M15650.06 8312.71l-7.65 6.95c-10.02,9.07 -20.43,17.71 -31.05,25.96 -4.97,3.85 -10.01,7.66 -15.13,11.33 -8.71,6.35 -17.57,12.35 -26.6,18.13 -7.2,4.62 -14.5,9.07 -21.94,13.34 -7.41,4.3 -14.89,8.36 -22.47,12.31 -9.56,4.94 -19.2,9.59 -29.04,14 -5.75,2.54 -11.5,5.01 -17.35,7.45 -12.49,5.01 -25.12,9.73 -38.07,13.9 -3.24,1.09 -6.49,2.15 -9.77,3.14 -51.58,15.62 -106.22,24.2 -162.88,24.2 -310.27,0 -561.76,-251.5 -561.76,-561.77 0,-75.95 15.27,-148.3 42.61,-214.41l3.95 -9.25c5.05,-11.64 10.66,-22.93 16.44,-34.15 3.74,-7.05 7.48,-14.07 11.5,-20.99 4.03,-6.98 8.22,-13.75 12.46,-20.49 6.81,-10.62 13.83,-21.13 21.34,-31.29l6.03 -8.12c43.61,-56.69 98.6,-106.08 164.4,-144.07 268.71,-155.12 612.24,-63.08 767.36,205.63 28.33,49.07 48.26,100.68 60.5,153.14 0.78,3.35 1.48,6.67 2.19,10.02 2.86,13.27 5.08,26.6 6.95,39.97 0.85,6.21 1.59,12.45 2.26,18.7 1.13,10.69 1.87,21.45 2.4,32.21 0.38,8.5 0.56,17 0.52,25.54 0.04,8.57 -0.14,17.18 -0.52,25.72 -0.53,10.68 -1.27,21.34 -2.4,32.03 -0.67,6.31 -1.41,12.56 -2.26,18.84 -1.87,13.3 -4.09,26.6 -6.95,39.82 -0.71,3.39 -1.41,6.74 -2.22,10.13 -12.25,52.49 -32.14,104.07 -60.47,153.14 -28.33,49.07 -63.08,92.08 -102.38,128.94zm546.7 -411.06c0,-63.78 -6.45,-126.01 -18.66,-186.12l311.4 -179.81 -291.68 -505.11 -310.37 179.21c-94.02,-84.17 -205.21,-149.36 -327.73,-189.86l0 -357.79 -583.29 0 0 357.79c-54.46,17.99 -106.71,40.78 -156.21,68.08 -5.89,3.21 -11.67,6.71 -17.49,10.09 -5.82,3.35 -11.72,6.6 -17.47,10.09 -48.36,29.21 -94.22,63.08 -137.05,101.25l-309.88 -178.86 -291.61 505.11 309.85 178.89c-11.64,56.16 -18.06,112.82 -19.16,169.33 -0.17,6.81 -0.03,13.69 -0.03,20.5 0,6.63 -0.14,13.23 0.03,19.86 1.1,56.48 7.52,113.17 19.16,169.34l-309.85 178.92 291.61 505.11 309.88 -178.89c96.31,85.83 208.39,149.58 328.22,188.84l0 358.46 583.29 0 0 -359.55c58.24,-19.48 115.36,-45.02 170.57,-76.91 56.58,-32.67 108.37,-70.41 155.22,-112.25l312.31 180.3 291.68 -505.11 -312.39 -180.37c12.85,-61.49 19.65,-125.2 19.65,-190.54z"/>
  <path class="fil0" d="M4350.06 12170.37c-2.08,4.3 -4.27,8.57 -6.42,12.81 -8.46,16.86 -17.64,33.26 -27.23,49.31 -4.52,7.48 -9.21,14.93 -13.97,22.3 -8.15,12.59 -16.62,24.84 -25.4,36.87 -7.02,9.63 -14.25,19.05 -21.77,28.32 -7.44,9.28 -15.13,18.38 -22.96,27.27 -9.92,11.19 -20.08,22.12 -30.63,32.74 -6.17,6.21 -12.45,12.35 -18.76,18.35 -13.66,12.84 -27.73,25.33 -42.37,37.18 -3.71,3.03 -7.41,6.03 -11.15,8.99 -59.05,46.15 -125.62,84.74 -199.14,113.18 -402.45,155.85 -855.05,-44.03 -1010.89,-446.48 -38.17,-98.53 -54.72,-200.1 -52.46,-299.54 0.12,-4.66 0.26,-9.35 0.49,-14.01 0.71,-17.6 2.28,-35.1 4.18,-52.53 1.27,-11 2.64,-22.05 4.38,-33.02 1.67,-11.04 3.71,-21.94 5.86,-32.84 3.48,-17.18 7.29,-34.33 11.93,-51.33 1.23,-4.52 2.49,-9 3.79,-13.51 28.03,-95.46 74.61,-187.19 140.85,-269.52 270.62,-336.2 762.54,-389.36 1098.7,-118.75 61.45,49.46 113.17,106.4 155.47,168.31 2.65,3.92 5.26,7.87 7.83,11.85 10.37,15.81 20,31.97 29.14,48.37 4.2,7.66 8.29,15.31 12.24,23.11 6.88,13.37 13.27,26.91 19.33,40.57 4.77,10.86 9.28,21.8 13.55,32.88 4.34,11.14 8.4,22.36 12.21,33.65 4.69,14.11 9.06,28.36 12.98,42.76 2.33,8.5 4.52,17 6.56,25.61 4.27,18.13 8.01,36.51 10.97,55.1 0.78,4.77 1.55,9.53 2.26,14.26 10.44,74.22 10.55,151.16 -1.55,229.02 -12.1,77.89 -35.56,151.16 -68.02,218.72zm502.71 -807.9c-32.07,-82.69 -71.68,-160.23 -117.79,-232.09l313.62 -389.68 -632.07 -508.7 -312.64 388.41c-164.18,-61.99 -341.2,-90.63 -520.45,-81.64l-179.75 -464.15 -756.63 293.02 179.75 464.15c-61.63,50.73 -117.99,106.54 -168.45,166.79 -6.05,7.17 -11.77,14.57 -17.64,21.84 -5.85,7.3 -11.87,14.46 -17.56,21.87 -48.1,62.2 -90.58,129.19 -126.94,200.24l-491.85 -76.41 -124.57 801.79 491.85 76.41c13.11,78.67 33.26,155.4 60.23,229.24 3.22,8.96 6.83,17.78 10.26,26.67 3.34,8.57 6.48,17.21 10.01,25.68 29.82,72.74 66.57,143.05 109.91,210.08l-312.09 387.7 632.1 508.78 312.08 -387.74c168.06,62.97 345.44,89.36 520.67,80.08l180.09 465 756.64 -292.98 -180.66 -466.45c65.76,-54.54 127.03,-116.34 182.63,-185.45 56.98,-70.81 105.17,-145.77 144.92,-223.63l495.76 77.05 124.57 -801.83 -495.8 -76.98c-14.25,-86.25 -37.39,-172.33 -70.2,-257.07z"/>
  <path class="fil0" d="M8796.54 4372.46l-7054.4 0c-49.89,0 -90.32,-40.46 -90.32,-90.34 0,-49.92 40.43,-90.31 90.32,-90.31l7054.4 0c49.89,0 90.32,40.39 90.32,90.31 0,49.88 -40.43,90.34 -90.32,90.34z"/>
  <path class="fil0" d="M8796.54 5019.32l-7054.4 0c-49.89,0 -90.32,-40.43 -90.32,-90.35 0,-49.88 40.43,-90.31 90.32,-90.31l7054.4 0c49.89,0 90.32,40.43 90.32,90.31 0,49.92 -40.43,90.35 -90.32,90.35z"/>
  <path class="fil0" d="M8796.54 5666.21l-7054.4 0c-49.89,0 -90.32,-40.47 -90.32,-90.35 0,-49.88 40.43,-90.31 90.32,-90.31l7054.4 0c49.89,0 90.32,40.43 90.32,90.31 0,49.88 -40.43,90.35 -90.32,90.35z"/>
  <path class="fil0" d="M8796.54 6313.1l-7054.4 0c-49.89,0 -90.32,-40.47 -90.32,-90.35 0,-49.88 40.43,-90.31 90.32,-90.31l7054.4 0c49.89,0 90.32,40.43 90.32,90.31 0,49.88 -40.43,90.35 -90.32,90.35z"/>
  <path class="fil0" d="M8796.54 6959.98l-7054.4 0c-49.89,0 -90.32,-40.46 -90.32,-90.34 0,-49.89 40.43,-90.31 90.32,-90.31l7054.4 0c49.89,0 90.32,40.42 90.32,90.31 0,49.88 -40.43,90.34 -90.32,90.34z"/>
  <path class="fil0" d="M8796.54 7606.84l-7054.4 0c-49.89,0 -90.32,-40.43 -90.32,-90.31 0,-49.89 40.43,-90.35 90.32,-90.35l7054.4 0c49.89,0 90.32,40.46 90.32,90.35 0,49.88 -40.43,90.31 -90.32,90.31z"/>
  <path class="fil0" d="M8796.54 8253.73l-7054.4 0c-49.89,0 -90.32,-40.43 -90.32,-90.32 0,-49.88 40.43,-90.34 90.32,-90.34l7054.4 0c49.89,0 90.32,40.46 90.32,90.34 0,49.89 -40.43,90.32 -90.32,90.32z"/>
  <path class="fil0" d="M8796.54 8900.61l-7054.4 0c-49.89,0 -90.32,-40.42 -90.32,-90.31 0,-49.88 40.43,-90.34 90.32,-90.34l7054.4 0c49.89,0 90.32,40.46 90.32,90.34 0,49.89 -40.43,90.31 -90.32,90.31z"/>
  <path class="fil0" d="M8796.54 9547.5l-7054.4 0c-49.89,0 -90.32,-40.43 -90.32,-90.31 0,-49.88 40.43,-90.34 90.32,-90.34l7054.4 0c49.89,0 90.32,40.46 90.32,90.34 0,49.88 -40.43,90.31 -90.32,90.31z"/>
  <path class="fil0" d="M14236.45 13644.1c0,282.47 -2425.28,511.42 -5417.01,511.42 -2991.73,0 -5417,-228.95 -5417,-511.42 0,-282.43 2425.27,-511.39 5417,-511.39 2991.73,0 5417.01,228.96 5417.01,511.39z"/>
  <polygon class="fil1" points="10389.19,13671.23 7249.68,13671.23 7430.59,13149.68 7516.91,12900.8 10121.97,12900.8 10208.29,13149.68 "/>
  <path class="fil2" d="M11747.57 12900.8l-7418.53 0c-58.42,0 -114.69,-9.28 -167.4,-26.46l3917.04 0 0 -1251.37 3668.89 0 0 1277.83zm-2928.13 -998.01c-161.75,0 -292.88,131.13 -292.88,292.87 0,161.75 131.13,292.85 292.88,292.85 161.75,0 292.88,-131.1 292.88,-292.85 0,-161.74 -131.13,-292.87 -292.88,-292.87zm-4938.82 758.86c-15.91,-23.64 -29.95,-48.61 -42.01,-74.72 -31.72,-68.76 -49.43,-145.31 -49.43,-226.02l0 -737.94 91.44 0 0 1038.68zm-91.44 -1038.68l0 -1394.46 0 1394.46z"/>
  <path class="fil3" d="M13849.7 11622.97l-10060.52 0 0 -5252.05c0,-298.17 241.69,-539.82 539.86,-539.82l8980.8 0c298.13,0 539.86,241.65 539.86,539.82l0 5252.05z"/>
  <path class="fil4" d="M11747.57 11067.09l-3668.89 0 0 -838.58 806.38 0 0 287.83 707.56 0 0 -287.83 320.64 0 0 287.83 707.53 0 0 -287.83 320.64 0 0 287.83 707.57 0 0 -287.83 277.57 0 0 423.33 -179 0 0 415.25zm423.33 -1534.02l0 -981.81 887.48 0 0 -78.11 -887.48 0 0 -114.37 1291.87 0 0 1166.6 -1222.66 0c-23.81,0 -46.95,2.65 -69.21,7.69z"/>
  <g style="clip-path:url(#id0)">
   <image x="8498.06" y="11867.09" width="646.29" height="649.82" xlink:href="background_Images\background_ImgID1.png"/>
  </g>
  <path class="fil5" d="M11207.07 13671.23l-4775.27 0c0,-160.27 129.93,-290.23 290.23,-290.23l4194.81 0c160.27,0 290.23,129.96 290.23,290.23z"/>
  <path class="fil0" d="M15533.44 14492.88c0,173.32 -982.74,313.83 -2195.06,313.83 -1212.35,0 -2195.09,-140.51 -2195.09,-313.83 0,-173.32 982.74,-313.82 2195.09,-313.82 1212.32,0 2195.06,140.5 2195.06,313.82z"/>
  <path class="fil6" d="M14436.65 14371.46l-2196.54 0c-173.14,0 -313.54,-140.34 -313.54,-313.52l0 -4219.01c0,-173.18 140.4,-313.55 313.54,-313.55l2196.54 0c173.14,0 313.51,140.37 313.51,313.55l0 4219.01c0,173.18 -140.37,313.52 -313.51,313.52z"/>
  <path class="fil7" d="M14750.16 14014.55l-2823.59 0 0 -152.43 2823.59 0 0 152.43zm0 -3362.71l-2823.59 0 0 -423.33 244.33 0 0 -365.62 618.74 0c15.69,93.38 96.97,164.5 194.8,164.5l707.85 0c97.86,0 179.1,-71.12 194.84,-164.5l863.03 0 0 788.95z"/>
  <g style="clip-path:url(#id1)">
   <image x="11711.86" y="10614.73" width="3249.79" height="3285.07" xlink:href="background_Images\background_ImgID2.png"/>
  </g>
  <g style="clip-path:url(#id2)">
   <image x="11711.86" y="13190" width="251.18" height="709.79" xlink:href="background_Images\background_ImgID3.png"/>
  </g>
  <g style="clip-path:url(#id3)">
   <image x="11711.86" y="11602.5" width="251.18" height="1344.79" xlink:href="background_Images\background_ImgID4.png"/>
  </g>
  <g style="clip-path:url(#id4)">
   <image x="11711.86" y="11038.06" width="251.18" height="639.23" xlink:href="background_Images\background_ImgID5.png"/>
  </g>
  <g style="clip-path:url(#id5)">
   <image x="11711.86" y="10614.73" width="251.18" height="498.12" xlink:href="background_Images\background_ImgID6.png"/>
  </g>
  <g style="clip-path:url(#id6)">
   <image x="11888.25" y="10614.73" width="2897.01" height="3285.07" xlink:href="background_Images\background_ImgID7.png"/>
  </g>
  <g style="clip-path:url(#id7)">
   <image x="12152.84" y="10879.31" width="2417.23" height="2417.23" xlink:href="background_Images\background_ImgID8.png"/>
  </g>
  <g style="clip-path:url(#id8)">
   <image x="12311.59" y="10921.64" width="2053.87" height="2053.87" xlink:href="background_Images\background_ImgID9.png"/>
  </g>
  <path class="fil8" d="M13338.38 11313.97c-349.85,0 -634.47,284.62 -634.47,634.47 0,349.85 284.62,634.43 634.47,634.43 349.85,0 634.44,-284.58 634.44,-634.43 0,-349.85 -284.59,-634.47 -634.44,-634.47zm0 1412.7c-429.12,0 -778.26,-349.11 -778.26,-778.23 0,-429.12 349.14,-778.3 778.26,-778.3 429.12,0 778.23,349.18 778.23,778.3 0,429.12 -349.11,778.23 -778.23,778.23z"/>
  <polygon class="fil8" points="13282.08,12244.24 13010.02,12004.78 13124.07,11875.24 13266.13,12000.3 13536.82,11690.66 13666.71,11804.26 "/>
  <path class="fil6" d="M13692.29 10027.39l-707.85 0c-109.08,0 -197.56,-88.44 -197.56,-197.56l1103 0c0,109.12 -88.48,197.56 -197.59,197.56z"/>
  <path class="fil9" d="M13626.64 9829.83l-576.51 0c0.07,-18.1 14.74,-32.77 32.88,-32.77l510.71 0c18.14,0 32.85,14.67 32.92,32.77z"/>
  <path class="fil9" d="M13593.72 9862.89l-510.71 0c-18.17,0 -32.88,-14.71 -32.88,-32.92 0,-0.03 0,-0.1 0,-0.14l576.51 0c0,0.04 0,0.11 0,0.14 0,18.21 -14.71,32.92 -32.92,32.92z"/>
  <g style="clip-path:url(#id9)">
   <image x="5256.03" y="5040.84" width="6495.34" height="815.62" xlink:href="background_Images\background_ImgID10.png"/>
  </g>
  <g style="clip-path:url(#id10)">
   <image x="10018.53" y="5040.84" width="1732.84" height="815.62" xlink:href="background_Images\background_ImgID11.png"/>
  </g>
  <g style="clip-path:url(#id11)">
   <image x="5256.03" y="5464.17" width="215.9" height="251.18" xlink:href="background_Images\background_ImgID12.png"/>
  </g>
  <g style="clip-path:url(#id12)">
   <image x="5256.03" y="5781.67" width="6495.34" height="639.23" xlink:href="background_Images\background_ImgID13.png"/>
  </g>
  <g style="clip-path:url(#id13)">
   <image x="5256.03" y="6346.12" width="6953.96" height="3920.07" xlink:href="background_Images\background_ImgID14.png"/>
  </g>
  <g style="clip-path:url(#id14)">
   <image x="11888.25" y="9485.84" width="321.73" height="780.34" xlink:href="background_Images\background_ImgID15.png"/>
  </g>
  <g style="clip-path:url(#id15)">
   <image x="11888.25" y="9838.62" width="321.73" height="427.57" xlink:href="background_Images\background_ImgID16.png"/>
  </g>
  <g style="clip-path:url(#id16)">
   <image x="5361.86" y="5287.78" width="6248.4" height="568.68" xlink:href="background_Images\background_ImgID17.png"/>
  </g>
  <g style="clip-path:url(#id17)">
   <image x="9877.42" y="5287.78" width="1732.84" height="568.68" xlink:href="background_Images\background_ImgID18.png"/>
  </g>
  <g style="clip-path:url(#id18)">
   <image x="5361.86" y="5464.17" width="3567.29" height="251.18" xlink:href="background_Images\background_ImgID19.png"/>
  </g>
  <g style="clip-path:url(#id19)">
   <image x="5361.86" y="5781.67" width="6248.4" height="639.23" xlink:href="background_Images\background_ImgID20.png"/>
  </g>
  <g style="clip-path:url(#id20)">
   <image x="5361.86" y="6346.12" width="6248.4" height="3002.84" xlink:href="background_Images\background_ImgID21.png"/>
  </g>
  <polygon class="fil3" points="5713.37,9010.86 11265.07,9010.86 11265.07,5654.1 5713.37,5654.1 "/>
  <polygon class="fil10" points="6305.23,6180.7 6882.74,6180.7 6882.74,6102.59 6305.23,6102.59 "/>
  <polygon class="fil10" points="7065.6,6180.7 8247.41,6180.7 8247.41,6102.59 7065.6,6102.59 "/>
  <polygon class="fil8" points="6550.41,6496.79 7127.87,6496.79 7127.87,6418.68 6550.41,6418.68 "/>
  <polygon class="fil11" points="7310.75,6496.79 10687.54,6496.79 10687.54,6418.68 7310.75,6418.68 "/>
  <polygon class="fil8" points="6550.41,6790.19 7127.87,6790.19 7127.87,6712.09 6550.41,6712.09 "/>
  <polygon class="fil11" points="7310.75,6790.19 10687.54,6790.19 10687.54,6712.09 7310.75,6712.09 "/>
  <polygon class="fil8" points="6550.41,7083.56 7127.87,7083.56 7127.87,7005.48 6550.41,7005.48 "/>
  <polygon class="fil11" points="7310.75,7083.56 10687.54,7083.56 10687.54,7005.48 7310.75,7005.48 "/>
  <polygon class="fil8" points="6550.41,7376.97 7127.87,7376.97 7127.87,7298.86 6550.41,7298.86 "/>
  <polygon class="fil10" points="6305.23,7687.45 6882.74,7687.45 6882.74,7609.3 6305.23,7609.3 "/>
  <polygon class="fil10" points="7065.6,7687.45 8247.41,7687.45 8247.41,7609.3 7065.6,7609.3 "/>
  <polygon class="fil8" points="7310.75,8003.54 9488.24,8003.54 9488.24,7925.43 7310.75,7925.43 "/>
  <polygon class="fil8" points="7310.75,8296.91 9488.24,8296.91 9488.24,8218.8 7310.75,8218.8 "/>
  <polygon class="fil11" points="6936.21,8296.91 7127.86,8296.91 7127.86,8218.8 6936.21,8218.8 "/>
  <polygon class="fil11" points="6550.41,8590.31 7127.87,8590.31 7127.87,8512.25 6550.41,8512.25 "/>
  <polygon class="fil8" points="7310.75,8590.31 9488.24,8590.31 9488.24,8512.25 7310.75,8512.25 "/>
  <polygon class="fil8" points="9644.87,8003.54 10711.98,8003.54 10711.98,7925.43 9644.87,7925.43 "/>
  <polygon class="fil8" points="9644.87,8296.91 10711.98,8296.91 10711.98,8218.8 9644.87,8218.8 "/>
  <polygon class="fil8" points="9644.87,8590.31 10711.98,8590.31 10711.98,8512.25 9644.87,8512.25 "/>
  <polygon class="fil11" points="7310.75,7376.97 10687.54,7376.97 10687.54,7298.86 7310.75,7298.86 "/>
  <g style="clip-path:url(#id21)">
   <image x="1657.7" y="6910.56" width="2156.18" height="3355.62" xlink:href="background_Images\background_ImgID22.png"/>
  </g>
  <g style="clip-path:url(#id22)">
   <image x="2962.98" y="10050.28" width="533.4" height="215.9" xlink:href="background_Images\background_ImgID23.png"/>
  </g>
  <g style="clip-path:url(#id23)">
   <image x="1657.7" y="7404.45" width="674.51" height="251.18" xlink:href="background_Images\background_ImgID24.png"/>
  </g>
  <g style="clip-path:url(#id24)">
   <image x="1657.7" y="8039.45" width="674.51" height="251.18" xlink:href="background_Images\background_ImgID25.png"/>
  </g>
  <g style="clip-path:url(#id25)">
   <image x="1657.7" y="8674.45" width="674.51" height="251.18" xlink:href="background_Images\background_ImgID26.png"/>
  </g>
  <g style="clip-path:url(#id26)">
   <image x="1657.7" y="9344.73" width="2156.18" height="251.18" xlink:href="background_Images\background_ImgID27.png"/>
  </g>
  <g style="clip-path:url(#id27)">
   <image x="3739.09" y="9380" width="498.12" height="886.18" xlink:href="background_Images\background_ImgID28.png"/>
  </g>
  <g style="clip-path:url(#id28)">
   <image x="4162.42" y="7228.06" width="709.79" height="2403.12" xlink:href="background_Images\background_ImgID29.png"/>
  </g>
  <g style="clip-path:url(#id29)">
   <image x="4822.11" y="7252.75" width="476.96" height="2350.21" xlink:href="background_Images\background_ImgID30.png"/>
  </g>
  <g style="clip-path:url(#id30)">
   <image x="2257.42" y="7228.06" width="145.34" height="2015.07" xlink:href="background_Images\background_ImgID31.png"/>
  </g>
  <g style="clip-path:url(#id31)">
   <image x="2257.42" y="7404.45" width="145.34" height="251.18" xlink:href="background_Images\background_ImgID32.png"/>
  </g>
  <g style="clip-path:url(#id32)">
   <image x="2257.42" y="8039.45" width="145.34" height="251.18" xlink:href="background_Images\background_ImgID33.png"/>
  </g>
  <g style="clip-path:url(#id33)">
   <image x="2257.42" y="8674.45" width="145.34" height="251.18" xlink:href="background_Images\background_ImgID34.png"/>
  </g>
  <g style="clip-path:url(#id34)">
   <image x="4621.03" y="7228.06" width="110.07" height="2015.07" xlink:href="background_Images\background_ImgID35.png"/>
  </g>
  <g style="clip-path:url(#id35)">
   <image x="2342.09" y="9193.03" width="1461.21" height="184.15" xlink:href="background_Images\background_ImgID36.png"/>
  </g>
  <g style="clip-path:url(#id36)">
   <image x="2342.09" y="9355.31" width="1461.21" height="64.21" xlink:href="background_Images\background_ImgID37.png"/>
  </g>
  <g style="clip-path:url(#id37)">
   <image x="3781.42" y="9312.98" width="420.51" height="106.54" xlink:href="background_Images\background_ImgID38.png"/>
  </g>
  <g style="clip-path:url(#id38)">
   <image x="4180.06" y="9185.98" width="480.48" height="233.54" xlink:href="background_Images\background_ImgID39.png"/>
  </g>
  <g style="clip-path:url(#id39)">
   <image x="2342.09" y="7256.28" width="1461.21" height="2078.57" xlink:href="background_Images\background_ImgID40.png"/>
  </g>
  <g style="clip-path:url(#id40)">
   <image x="2342.09" y="7415.03" width="1461.21" height="198.26" xlink:href="background_Images\background_ImgID41.png"/>
  </g>
  <g style="clip-path:url(#id41)">
   <image x="2342.09" y="8060.61" width="1461.21" height="205.32" xlink:href="background_Images\background_ImgID42.png"/>
  </g>
  <g style="clip-path:url(#id42)">
   <image x="2342.09" y="8709.73" width="1461.21" height="201.79" xlink:href="background_Images\background_ImgID43.png"/>
  </g>
  <g style="clip-path:url(#id43)">
   <image x="3781.42" y="7256.28" width="420.51" height="2078.57" xlink:href="background_Images\background_ImgID44.png"/>
  </g>
  <g style="clip-path:url(#id44)">
   <image x="4180.06" y="7256.28" width="480.48" height="2078.57" xlink:href="background_Images\background_ImgID45.png"/>
  </g>
  <path class="fil8" d="M3726.74 8361.36l-4.55 4.13c-6.03,5.46 -12.28,10.61 -18.63,15.59l-9.1 6.81c-5.22,3.81 -10.55,7.37 -15.95,10.86 -4.3,2.75 -8.67,5.4 -13.15,7.98 -4.45,2.57 -8.93,5.04 -13.44,7.37 -5.75,2.96 -11.54,5.75 -17.43,8.43 -3.46,1.52 -6.92,3.03 -10.41,4.45 -7.48,3.03 -15.06,5.85 -22.82,8.32l-5.86 1.91c-30.9,9.34 -63.68,14.49 -97.66,14.49 -185.97,0 -336.75,-150.81 -336.75,-336.79 0,-45.55 9.14,-88.94 25.53,-128.55l2.38 -5.54c3.03,-6.95 6.39,-13.76 9.87,-20.46 2.21,-4.24 4.48,-8.44 6.88,-12.6 2.4,-4.16 4.91,-8.25 7.49,-12.27 4.06,-6.39 8.25,-12.63 12.77,-18.77l3.63 -4.84c26.12,-34 59.12,-63.64 98.55,-86.39 161.09,-92.99 367.04,-37.82 460.03,123.26 17.01,29.42 28.93,60.4 36.27,91.83l1.3 5.99c1.73,7.98 3.07,15.95 4.17,23.96 0.53,3.74 0.95,7.48 1.37,11.18 0.67,6.46 1.13,12.91 1.45,19.33 0.21,5.12 0.32,10.2 0.32,15.35 0,5.11 -0.11,10.27 -0.32,15.38 -0.32,6.42 -0.78,12.84 -1.45,19.23 -0.39,3.81 -0.84,7.55 -1.37,11.32 -1.1,7.94 -2.44,15.91 -4.17,23.85l-1.3 6.07c-7.37,31.46 -19.3,62.4 -36.27,91.82 -17,29.43 -37.82,55.18 -61.38,77.3zm327.77 -246.45c0,-38.21 -3.85,-75.53 -11.19,-111.59l186.66 -107.8 -174.84 -302.83 -186.09 107.46c-56.34,-50.49 -123.01,-89.54 -196.46,-113.84l0 -214.49 -349.68 0 0 214.49c-32.66,10.83 -63.99,24.48 -93.65,40.85 -3.54,1.9 -7,4.02 -10.5,6.03 -3.47,2.01 -7,3.95 -10.46,6.03 -28.99,17.54 -56.48,37.86 -82.17,60.72l-185.76 -107.25 -174.84 302.83 185.75 107.28c-6.97,33.65 -10.81,67.62 -11.49,101.49 -0.08,4.09 0,8.22 -0.01,12.31 0.01,3.95 -0.07,7.9 0.01,11.89 0.68,33.87 4.52,67.84 11.49,101.53l-185.75 107.24 174.84 302.86 185.76 -107.24c57.74,51.43 124.92,89.64 196.78,113.21l0 214.87 349.68 0 0 -215.54c34.89,-11.68 69.14,-27.03 102.27,-46.11 33.9,-19.58 64.94,-42.23 93.03,-67.31l187.25 108.12 174.84 -302.86 -187.26 -108.12c7.69,-36.87 11.79,-75.07 11.79,-114.23z"/>
  <g style="clip-path:url(#id45)">
   <image x="3844.92" y="12625.56" width="357.01" height="286.46" xlink:href="background_Images\background_ImgID46.png"/>
  </g>
  <g style="clip-path:url(#id46)">
   <image x="3844.92" y="11602.5" width="4272.84" height="1309.51" xlink:href="background_Images\background_ImgID47.png"/>
  </g>
  <g style="clip-path:url(#id47)">
   <image x="3844.92" y="10191.39" width="4272.84" height="1485.9" xlink:href="background_Images\background_ImgID48.png"/>
  </g>
  <g style="clip-path:url(#id48)">
   <image x="4162.42" y="10191.39" width="3955.34" height="921.46" xlink:href="background_Images\background_ImgID49.png"/>
  </g>
  <g style="clip-path:url(#id49)">
   <image x="5280.73" y="9581.09" width="2805.29" height="656.87" xlink:href="background_Images\background_ImgID50.png"/>
  </g>
  <g style="clip-path:url(#id50)">
   <image x="3866.09" y="9584.62" width="335.84" height="653.34" xlink:href="background_Images\background_ImgID51.png"/>
  </g>
  <g style="clip-path:url(#id51)">
   <image x="4180.06" y="9584.62" width="663.93" height="653.34" xlink:href="background_Images\background_ImgID52.png"/>
  </g>
  <g style="clip-path:url(#id52)">
   <image x="4822.11" y="9581.09" width="476.96" height="300.57" xlink:href="background_Images\background_ImgID53.png"/>
  </g>
  <g style="clip-path:url(#id53)">
   <image x="4409.36" y="11602.5" width="180.62" height="321.73" xlink:href="background_Images\background_ImgID54.png"/>
  </g>
  <g style="clip-path:url(#id54)">
   <image x="4409.36" y="11038.06" width="180.62" height="639.23" xlink:href="background_Images\background_ImgID55.png"/>
  </g>
  <g style="clip-path:url(#id55)">
   <image x="4409.36" y="10191.39" width="180.62" height="921.46" xlink:href="background_Images\background_ImgID56.png"/>
  </g>
  <g style="clip-path:url(#id56)">
   <image x="5280.73" y="9863.31" width="2145.59" height="120.65" xlink:href="background_Images\background_ImgID57.png"/>
  </g>
  <g style="clip-path:url(#id57)">
   <image x="4444.64" y="9863.31" width="399.34" height="374.65" xlink:href="background_Images\background_ImgID58.png"/>
  </g>
  <g style="clip-path:url(#id58)">
   <image x="4822.11" y="9863.31" width="476.96" height="120.65" xlink:href="background_Images\background_ImgID59.png"/>
  </g>
  <g style="clip-path:url(#id59)">
   <image x="7407.98" y="11602.5" width="110.07" height="286.46" xlink:href="background_Images\background_ImgID60.png"/>
  </g>
  <g style="clip-path:url(#id60)">
   <image x="7407.98" y="11038.06" width="110.07" height="639.23" xlink:href="background_Images\background_ImgID61.png"/>
  </g>
  <g style="clip-path:url(#id61)">
   <image x="7407.98" y="10191.39" width="110.07" height="921.46" xlink:href="background_Images\background_ImgID62.png"/>
  </g>
  <g style="clip-path:url(#id62)">
   <image x="7422.09" y="9990.31" width="88.9" height="247.65" xlink:href="background_Images\background_ImgID63.png"/>
  </g>
  <g style="clip-path:url(#id63)">
   <image x="4529.31" y="11838.87" width="2918.18" height="332.32" xlink:href="background_Images\background_ImgID64.png"/>
  </g>
  <g style="clip-path:url(#id64)">
   <image x="7404.45" y="9962.09" width="35.98" height="46.57" xlink:href="background_Images\background_ImgID65.png"/>
  </g>
  <g style="clip-path:url(#id65)">
   <image x="4529.31" y="11609.56" width="2918.18" height="378.18" xlink:href="background_Images\background_ImgID66.png"/>
  </g>
  <g style="clip-path:url(#id66)">
   <image x="4529.31" y="11059.23" width="2918.18" height="572.21" xlink:href="background_Images\background_ImgID67.png"/>
  </g>
  <g style="clip-path:url(#id67)">
   <image x="4529.31" y="10219.62" width="2918.18" height="857.96" xlink:href="background_Images\background_ImgID68.png"/>
  </g>
  <g style="clip-path:url(#id68)">
   <image x="5280.73" y="9962.09" width="2159.71" height="275.87" xlink:href="background_Images\background_ImgID69.png"/>
  </g>
  <g style="clip-path:url(#id69)">
   <image x="4529.31" y="9965.61" width="773.29" height="272.35" xlink:href="background_Images\background_ImgID70.png"/>
  </g>
  <g style="clip-path:url(#id70)">
   <image x="4822.11" y="9962.09" width="476.96" height="275.87" xlink:href="background_Images\background_ImgID71.png"/>
  </g>
  <polygon class="fil8" points="5534.44,10430.19 4961.74,10925.91 5534.44,11421.71 5534.44,11153.03 5272.12,10925.91 5534.44,10698.86 "/>
  <polygon class="fil8" points="6414.76,11421.71 6987.46,10925.91 6414.76,10430.19 6414.76,10698.86 6677.09,10925.91 6414.76,11153.03 "/>
  <polygon class="fil8" points="5919.22,11583.49 5676.72,11583.49 6029.99,10268.4 6272.49,10268.4 "/>
  <g style="clip-path:url(#id71)">
   <image x="11676.59" y="3770.84" width="4590.34" height="4625.62" xlink:href="background_Images\background_ImgID72.png"/>
  </g>
  <g style="clip-path:url(#id72)">
   <image x="11676.59" y="3770.84" width="2614.79" height="2085.62" xlink:href="background_Images\background_ImgID73.png"/>
  </g>
  <g style="clip-path:url(#id73)">
   <image x="14004.92" y="6981.12" width="2262.01" height="1415.34" xlink:href="background_Images\background_ImgID74.png"/>
  </g>
  <g style="clip-path:url(#id74)">
   <image x="12135.2" y="5781.67" width="1768.12" height="2614.79" xlink:href="background_Images\background_ImgID75.png"/>
  </g>
  <g style="clip-path:url(#id75)">
   <image x="12135.2" y="6346.12" width="1380.07" height="2050.34" xlink:href="background_Images\background_ImgID76.png"/>
  </g>
  <g style="clip-path:url(#id76)">
   <image x="11704.81" y="5069.06" width="476.96" height="688.62" xlink:href="background_Images\background_ImgID77.png"/>
  </g>
  <g style="clip-path:url(#id77)">
   <image x="11704.81" y="5661.73" width="476.96" height="180.62" xlink:href="background_Images\background_ImgID78.png"/>
  </g>
  <g style="clip-path:url(#id78)">
   <image x="11704.81" y="5820.48" width="476.96" height="565.15" xlink:href="background_Images\background_ImgID79.png"/>
  </g>
  <g style="clip-path:url(#id79)">
   <image x="11704.81" y="6363.75" width="476.96" height="2004.48" xlink:href="background_Images\background_ImgID80.png"/>
  </g>
  <g style="clip-path:url(#id80)">
   <image x="13828.53" y="7369.17" width="1697.57" height="110.07" xlink:href="background_Images\background_ImgID81.png"/>
  </g>
  <g style="clip-path:url(#id81)">
   <image x="14075.48" y="7369.17" width="992.01" height="110.07" xlink:href="background_Images\background_ImgID82.png"/>
  </g>
  <g style="clip-path:url(#id82)">
   <image x="13440.48" y="7369.17" width="462.84" height="110.07" xlink:href="background_Images\background_ImgID83.png"/>
  </g>
  <g style="clip-path:url(#id83)">
   <image x="12382.14" y="7369.17" width="1133.12" height="110.07" xlink:href="background_Images\background_ImgID84.png"/>
  </g>
  <g style="clip-path:url(#id84)">
   <image x="12241.03" y="4053.06" width="3426.18" height="392.29" xlink:href="background_Images\background_ImgID85.png"/>
  </g>
  <g style="clip-path:url(#id85)">
   <image x="12805.48" y="4053.06" width="1485.9" height="392.29" xlink:href="background_Images\background_ImgID86.png"/>
  </g>
  <g style="clip-path:url(#id86)">
   <image x="15479.53" y="4391.73" width="226.48" height="3020.48" xlink:href="background_Images\background_ImgID87.png"/>
  </g>
  <g style="clip-path:url(#id87)">
   <image x="15490.11" y="7034.03" width="215.9" height="378.18" xlink:href="background_Images\background_ImgID88.png"/>
  </g>
  <g style="clip-path:url(#id88)">
   <image x="12262.2" y="4391.73" width="28.93" height="1351.84" xlink:href="background_Images\background_ImgID89.png"/>
  </g>
  <g style="clip-path:url(#id89)">
   <image x="12262.2" y="5721.7" width="28.93" height="120.65" xlink:href="background_Images\background_ImgID90.png"/>
  </g>
  <g style="clip-path:url(#id90)">
   <image x="12262.2" y="5824" width="28.93" height="561.62" xlink:href="background_Images\background_ImgID91.png"/>
  </g>
  <g style="clip-path:url(#id91)">
   <image x="12262.2" y="6363.75" width="162.98" height="1048.46" xlink:href="background_Images\background_ImgID92.png"/>
  </g>
  <g style="clip-path:url(#id92)">
   <image x="12269.25" y="4391.73" width="3376.79" height="3020.48" xlink:href="background_Images\background_ImgID93.png"/>
  </g>
  <g style="clip-path:url(#id93)">
   <image x="12269.25" y="4391.73" width="1993.9" height="1799.87" xlink:href="background_Images\background_ImgID94.png"/>
  </g>
  <g style="clip-path:url(#id94)">
   <image x="14117.81" y="6653.03" width="1528.23" height="759.18" xlink:href="background_Images\background_ImgID95.png"/>
  </g>
  <g style="clip-path:url(#id95)">
   <image x="12269.25" y="5824" width="1588.21" height="1588.21" xlink:href="background_Images\background_ImgID96.png"/>
  </g>
  <g style="clip-path:url(#id96)">
   <image x="12269.25" y="6363.75" width="1207.21" height="1048.46" xlink:href="background_Images\background_ImgID97.png"/>
  </g>
  <path class="fil8" d="M14786.85 5153.06c-69.14,0 -134.65,15.48 -193.36,43.14 -80.36,-287.12 -343.74,-497.77 -656.55,-497.77 -307.73,0 -567.76,203.87 -652.64,483.91 -49.95,-18.88 -104.07,-29.28 -160.65,-29.28 -251.04,0 -454.59,203.51 -454.59,454.62l2572.42 0c0,-251.11 -203.56,-454.62 -454.63,-454.62z"/>
  <polygon class="fil8" points="13482.14,6373 13955.25,6846.14 14428.39,6373 14109.62,6373 14109.62,5814.9 13800.91,5814.9 13800.91,6373 "/>
  <g style="clip-path:url(#id97)">
   <image x="1657.7" y="3629.73" width="3673.12" height="3038.12" xlink:href="background_Images\background_ImgID98.png"/>
  </g>
  <g style="clip-path:url(#id98)">
   <image x="1657.7" y="4158.89" width="3673.12" height="251.18" xlink:href="background_Images\background_ImgID99.png"/>
  </g>
  <g style="clip-path:url(#id99)">
   <image x="1657.7" y="4793.89" width="3673.12" height="251.18" xlink:href="background_Images\background_ImgID100.png"/>
  </g>
  <g style="clip-path:url(#id100)">
   <image x="1657.7" y="5464.17" width="3214.51" height="251.18" xlink:href="background_Images\background_ImgID101.png"/>
  </g>
  <g style="clip-path:url(#id101)">
   <image x="1657.7" y="6099.17" width="815.62" height="251.18" xlink:href="background_Images\background_ImgID102.png"/>
  </g>
  <g style="clip-path:url(#id102)">
   <image x="3739.09" y="5781.67" width="1133.12" height="886.18" xlink:href="background_Images\background_ImgID103.png"/>
  </g>
  <g style="clip-path:url(#id103)">
   <image x="4162.42" y="6346.11" width="709.79" height="321.73" xlink:href="background_Images\background_ImgID104.png"/>
  </g>
  <g style="clip-path:url(#id104)">
   <image x="4822.11" y="5069.06" width="476.96" height="773.29" xlink:href="background_Images\background_ImgID105.png"/>
  </g>
  <g style="clip-path:url(#id105)">
   <image x="4822.11" y="5474.75" width="476.96" height="198.26" xlink:href="background_Images\background_ImgID106.png"/>
  </g>
  <g style="clip-path:url(#id106)">
   <image x="4822.11" y="5820.48" width="476.96" height="565.15" xlink:href="background_Images\background_ImgID107.png"/>
  </g>
  <g style="clip-path:url(#id107)">
   <image x="4822.11" y="6363.75" width="476.96" height="910.87" xlink:href="background_Images\background_ImgID108.png"/>
  </g>
  <g style="clip-path:url(#id108)">
   <image x="1682.39" y="6621.28" width="2120.9" height="653.34" xlink:href="background_Images\background_ImgID109.png"/>
  </g>
  <g style="clip-path:url(#id109)">
   <image x="1682.39" y="6772.98" width="2120.9" height="198.26" xlink:href="background_Images\background_ImgID110.png"/>
  </g>
  <g style="clip-path:url(#id110)">
   <image x="3781.42" y="6621.28" width="420.51" height="300.57" xlink:href="background_Images\background_ImgID111.png"/>
  </g>
  <g style="clip-path:url(#id111)">
   <image x="4180.06" y="6621.28" width="663.93" height="653.34" xlink:href="background_Images\background_ImgID112.png"/>
  </g>
  <g style="clip-path:url(#id112)">
   <image x="4822.11" y="6617.75" width="476.96" height="656.87" xlink:href="background_Images\background_ImgID113.png"/>
  </g>
  <g style="clip-path:url(#id113)">
   <image x="2275.06" y="6949.36" width="1528.23" height="325.26" xlink:href="background_Images\background_ImgID114.png"/>
  </g>
  <g style="clip-path:url(#id114)">
   <image x="2419.7" y="6899.98" width="1383.59" height="71.26" xlink:href="background_Images\background_ImgID115.png"/>
  </g>
  <g style="clip-path:url(#id115)">
   <image x="3781.42" y="6899.98" width="420.51" height="191.21" xlink:href="background_Images\background_ImgID116.png"/>
  </g>
  <g style="clip-path:url(#id116)">
   <image x="4180.06" y="6899.98" width="536.93" height="374.65" xlink:href="background_Images\background_ImgID117.png"/>
  </g>
  <g style="clip-path:url(#id117)">
   <image x="2342.09" y="7069.31" width="1461.21" height="205.32" xlink:href="background_Images\background_ImgID118.png"/>
  </g>
  <g style="clip-path:url(#id118)">
   <image x="3781.42" y="7069.31" width="420.51" height="205.32" xlink:href="background_Images\background_ImgID119.png"/>
  </g>
  <g style="clip-path:url(#id119)">
   <image x="4180.06" y="7069.31" width="480.48" height="205.32" xlink:href="background_Images\background_ImgID120.png"/>
  </g>
  <g style="clip-path:url(#id120)">
   <image x="2257.42" y="3911.95" width="2473.68" height="2473.68" xlink:href="background_Images\background_ImgID121.png"/>
  </g>
  <g style="clip-path:url(#id121)">
   <image x="2257.42" y="4158.89" width="2473.68" height="251.18" xlink:href="background_Images\background_ImgID122.png"/>
  </g>
  <g style="clip-path:url(#id122)">
   <image x="2257.42" y="4793.89" width="2473.68" height="251.18" xlink:href="background_Images\background_ImgID123.png"/>
  </g>
  <g style="clip-path:url(#id123)">
   <image x="2257.42" y="5464.17" width="2473.68" height="251.18" xlink:href="background_Images\background_ImgID124.png"/>
  </g>
  <g style="clip-path:url(#id124)">
   <image x="2257.42" y="6099.17" width="1627.01" height="251.18" xlink:href="background_Images\background_ImgID125.png"/>
  </g>
  <g style="clip-path:url(#id125)">
   <image x="3739.09" y="5781.67" width="992.01" height="603.96" xlink:href="background_Images\background_ImgID126.png"/>
  </g>
  <polygon class="fil3" points="2575.14,6072.68 4420.37,6072.68 4420.37,4227.47 2575.14,4227.47 "/>
  <polygon class="fil8" points="2887.26,4664.78 3057.12,4664.78 3057.12,4586.67 2887.26,4586.67 "/>
  <polygon class="fil11" points="3145.92,4664.78 4014.18,4664.78 4014.18,4586.67 3145.92,4586.67 "/>
  <polygon class="fil8" points="2887.26,4926.82 3151.2,4926.82 3151.2,4848.73 2887.26,4848.73 "/>
  <polygon class="fil11" points="3239.98,4926.82 4108.27,4926.82 4108.27,4848.73 3239.98,4848.73 "/>
  <polygon class="fil8" points="2887.26,5419.54 3057.12,5419.54 3057.12,5341.44 2887.26,5341.44 "/>
  <polygon class="fil11" points="3145.92,5419.54 4014.18,5419.54 4014.18,5341.44 3145.92,5341.44 "/>
  <polygon class="fil8" points="2887.26,5681.55 3151.2,5681.55 3151.2,5603.45 2887.26,5603.45 "/>
  <polygon class="fil11" points="3239.98,5681.55 4108.27,5681.55 4108.27,5603.45 3239.98,5603.45 "/>
  <polygon class="fil8" points="2730.47,5188.86 2994.4,5188.86 2994.4,5110.76 2730.47,5110.76 "/>
  <polygon class="fil11" points="3083.2,5188.86 4265.04,5188.86 4265.04,5110.76 3083.2,5110.76 "/>
  <polygon class="fil12" points="8885.06,10516.34 9592.62,10516.34 9592.62,10228.51 8885.06,10228.51 "/>
  <g style="clip-path:url(#id126)">
   <image x="8854.36" y="9768.06" width="780.34" height="498.12" xlink:href="background_Images\background_ImgID127.png"/>
  </g>
  <polygon class="fil13" points="9913.26,10516.34 10620.79,10516.34 10620.79,10228.51 9913.26,10228.51 "/>
  <g style="clip-path:url(#id127)">
   <image x="9877.42" y="9768.06" width="780.34" height="498.12" xlink:href="background_Images\background_ImgID128.png"/>
  </g>
  <polygon class="fil14" points="10941.43,10516.34 11649,10516.34 11649,10228.51 10941.43,10228.51 "/>
  <g style="clip-path:url(#id128)">
   <image x="10900.48" y="9768.06" width="780.34" height="498.12" xlink:href="background_Images\background_ImgID129.png"/>
  </g>
  <g style="clip-path:url(#id129)">
   <image x="12135.2" y="7863.06" width="956.73" height="145.35" xlink:href="background_Images\background_ImgID130.png"/>
  </g>
  <g style="clip-path:url(#id130)">
   <image x="11983.5" y="7880.7" width="198.26" height="95.96" xlink:href="background_Images\background_ImgID131.png"/>
  </g>
  <g style="clip-path:url(#id131)">
   <image x="12135.2" y="8145.28" width="956.73" height="145.35" xlink:href="background_Images\background_ImgID132.png"/>
  </g>
  <g style="clip-path:url(#id132)">
   <image x="11983.5" y="8166.45" width="198.26" height="99.48" xlink:href="background_Images\background_ImgID133.png"/>
  </g>
  <polygon class="fil15" points="12170.9,8551.26 13058.38,8551.26 13058.38,8473.15 12170.9,8473.15 "/>
  <g style="clip-path:url(#id133)">
   <image x="11958.81" y="8427.5" width="251.18" height="145.35" xlink:href="background_Images\background_ImgID134.png"/>
  </g>
 </g>
</svg>
