<?xml version="1.0" encoding="UTF-8"?>
<!DOCTYPE svg PUBLIC "-//W3C//DTD SVG 1.1//EN" "http://www.w3.org/Graphics/SVG/1.1/DTD/svg11.dtd">
<!-- Creator: CorelDRAW -->
<svg xmlns="http://www.w3.org/2000/svg" xml:space="preserve" width="91.44mm" height="27.9398mm" version="1.1" style="shape-rendering:geometricPrecision; text-rendering:geometricPrecision; image-rendering:optimizeQuality; fill-rule:evenodd; clip-rule:evenodd"
viewBox="0 0 9144 2793.98"
 xmlns:xlink="http://www.w3.org/1999/xlink"
 xmlns:xodm="http://www.corel.com/coreldraw/odm/2003">
 <defs>
  <style type="text/css">
   <![CDATA[
    .fil1 {fill:white}
    .fil0 {fill:white;fill-rule:nonzero}
   ]]>
  </style>
 </defs>
 <g id="Camada_x0020_1">
  <metadata id="CorelCorpID_0Corel-Layer"/>
  <g id="_2656623028448">
   <path class="fil0" d="M4498.24 1577.41l-995.09 0 0 -1469.64 290.63 0 0 1193.74 704.46 0 0 275.9zm1147.77 -386.26c0,55.18 -11.97,107.6 -35.87,157.26 -23.92,49.66 -57.33,93.5 -100.26,131.52 -42.9,37.99 -93.8,68.34 -152.65,91.05 -58.88,22.68 -123.85,34.02 -194.98,34.02 -63.76,0 -121.09,-3.68 -171.97,-11.04 -50.9,-7.36 -98.72,-19.01 -143.47,-34.95 -44.77,-15.93 -87.68,-36.48 -128.76,-61.62 -41.08,-25.13 -83.68,-55.48 -127.83,-91.04l202.32 -204.17c58.86,49.06 116.49,83.68 172.91,103.93 56.4,20.23 117.7,30.35 183.92,30.35 26.98,0 52.42,-4 76.34,-11.97 23.92,-7.97 44.75,-18.68 62.54,-32.17 17.77,-13.49 31.87,-29.44 42.3,-47.84 10.43,-18.38 15.64,-38.63 15.64,-60.7 0,-23.29 -4.3,-44.14 -12.88,-62.52 -8.58,-18.4 -23.92,-36.19 -45.99,-53.36 -22.07,-17.16 -52.73,-34.63 -91.96,-52.42 -39.24,-17.77 -89.51,-37.69 -150.83,-59.76 -53.95,-19.64 -105.76,-42.02 -155.42,-67.15 -49.66,-25.14 -93.2,-55.49 -130.59,-91.05 -37.41,-35.56 -67.45,-77.25 -90.13,-125.07 -22.68,-47.83 -34.02,-104.23 -34.02,-169.23 0,-62.52 12.55,-120.16 37.69,-172.88 25.14,-52.73 59.48,-97.81 103.02,-135.19 43.51,-37.41 94.41,-66.52 152.66,-87.38 58.24,-20.83 121.09,-31.26 188.52,-31.26 112.81,0 207.86,14.71 285.11,44.14 77.25,29.42 145.92,72.34 206.01,128.74l-198.67 200.5c-36.78,-35.57 -77.86,-62.85 -123.22,-81.86 -45.38,-18.99 -98.71,-28.5 -160.02,-28.5 -28.2,0 -54.27,4.3 -78.19,12.88 -23.89,8.58 -44.44,19.92 -61.61,34.02 -17.16,14.1 -30.95,30.65 -41.38,49.66 -10.43,19.01 -15.64,38.93 -15.64,59.79 0,23.29 4.91,44.45 14.73,63.45 9.79,19.01 26.35,37.39 49.66,55.18 23.29,17.77 54.24,35.57 92.87,53.34 38.63,17.79 86.77,37.1 144.4,57.94 73.56,25.76 136.71,53.96 189.44,84.61 52.75,30.66 95.65,64.37 128.76,101.17 33.11,36.78 57.64,78.17 73.58,124.16 15.95,45.97 23.92,97.78 23.92,155.42z"/>
   <path class="fil1" d="M437.33 2611.72l395.94 0c17.9,0 32.51,14.61 32.51,32.52l0 30.98c0,17.91 -14.61,32.52 -32.51,32.52l-462.09 0c-17.91,0 -32.51,-14.61 -32.51,-32.52l0 -663.91c0,-17.91 14.6,-32.52 32.51,-32.52l33.64 0c17.91,0 32.51,14.61 32.51,32.52l0 600.41zm891.89 -282.38c-12.79,-20.4 -29.67,-37.8 -50.25,-52.66 -33.44,-24.15 -70.7,-37.22 -111.98,-37.22 -52.36,0 -95.04,21.6 -132.14,57.97 -37.32,36.59 -58.42,80.05 -58.42,132.59 0,52.98 18.89,97.09 56.11,134.69 36.96,37.34 81.97,55.86 134.45,55.86 57.36,0 104.11,-21 141.98,-64.16 6,-6.84 13.65,-10.56 22.73,-11.04 9.09,-0.47 17.08,2.41 23.77,8.58l23.02 21.25c6.74,6.22 10.27,14.06 10.45,23.24 0.19,9.18 -3.02,17.15 -9.52,23.64 -58.57,58.58 -128.79,94.51 -212.43,94.51 -79.29,0 -146.95,-28.54 -202.79,-84.87 -55.21,-55.71 -83.78,-123.23 -83.78,-201.7 0,-78.62 28.27,-147.09 83.88,-202.69 55.61,-55.61 124.08,-83.89 202.69,-83.89 70.94,0 133.36,23.36 186.89,69.95 53.67,46.72 85.76,105.04 96.65,175.35 1.51,9.72 -1.05,18.68 -7.44,26.14 -6.4,7.46 -14.86,11.36 -24.69,11.36l-370.02 0c-17.91,0 -32.52,-14.61 -32.52,-32.52l0 -31.87c0,-17.9 14.61,-32.51 32.52,-32.51l280.84 0zm736.03 99.79c0,79.29 -28.74,146.67 -84.76,202.69 -55.59,55.6 -123.15,83.88 -201.81,83.88 -78.9,0 -146.28,-28.45 -202.49,-83.68 -0.14,-0.14 -0.26,-0.26 -0.41,-0.4 -55.21,-56.21 -83.67,-123.59 -83.67,-202.49 0,-78.65 28.5,-145.93 83.77,-201.7 55.61,-56.11 123.79,-84.88 202.8,-84.88 79.04,0 146.32,28.8 201.91,84.88 55.38,55.86 84.66,122.87 84.66,201.7zm636.48 -0.88l0 246.97c0,17.91 -14.61,32.52 -32.51,32.52l-32.76 0c-17.9,0 -32.51,-14.61 -32.51,-32.52l0 -246.97c0,-52.89 -19.26,-96.46 -56.76,-133.58 -37.76,-37.38 -81.37,-56.98 -134.69,-56.98 -52.86,0 -96.39,19.93 -133.8,56.98 -37.5,37.12 -56.76,80.69 -56.76,133.58l0 246.97c0,17.91 -14.61,32.52 -32.51,32.52l-32.76 0c-17.9,0 -32.51,-14.61 -32.51,-32.52l0 -246.97c0,-79.04 28.79,-146.33 84.86,-201.91 56.23,-55.74 124.24,-84.67 203.48,-84.67 79.25,0 147.25,28.93 203.48,84.67 56.02,55.52 85.75,122.79 85.75,201.91zm462.9 194.99l12.4 28.32c3.63,8.3 3.76,16.75 0.38,25.15 -3.37,8.41 -9.31,14.42 -17.67,17.9 -35.75,14.9 -72.86,22.86 -111.65,22.86 -77.35,0 -144.25,-28.35 -200.3,-81.5 -58.53,-55.5 -87.16,-125.45 -87.16,-205.95 0,-78.09 28.28,-145.62 82.69,-201.5 55.81,-57.32 124.8,-85.97 204.77,-85.97 77.54,0 144.44,28.08 200.41,81.62 58.51,55.97 87.05,124.88 87.05,205.85l0 245.2c0,17.91 -14.61,32.52 -32.52,32.52l-30.98 0c-17.9,0 -32.51,-14.61 -32.51,-32.52l0 -251.4c0,-52.18 -20.08,-94.71 -57.94,-130.35 -38.01,-35.78 -81.13,-54.9 -133.51,-54.9 -52.61,0 -96.27,19.53 -134.28,55.67 -39.11,37.2 -57.16,81.89 -57.16,135.78 0,52.29 18.78,96.41 54.78,134.27 37.44,39.37 82.53,57.17 136.66,57.17 25.65,0 50.81,-5.68 74.51,-15.32 16.31,-6.62 34.97,0.97 42.03,17.1zm566.62 -449.05l0 30.98c0,17.91 -14.61,32.52 -32.52,32.52 -52.86,0 -97.32,19.22 -134.46,56.75 -36.99,37.37 -56.1,82 -56.1,134.69l0 246.09c0,17.91 -14.61,32.52 -32.52,32.52l-30.98 0c-17.91,0 -32.52,-14.61 -32.52,-32.52l0 -246.09c0,-80.67 28.36,-150.7 87.27,-206.05 55.87,-52.51 122.45,-81.41 199.31,-81.41 17.91,0 32.52,14.61 32.52,32.52zm413.47 32.17l-12.4 29.22c-3.54,8.35 -9.61,14.25 -18.05,17.56 -8.44,3.32 -16.91,3.12 -25.18,-0.6 -23.1,-10.35 -48.21,-14.85 -73.45,-14.85 -53.92,0 -98.45,18.7 -136,57.4 -36.6,37.72 -55.45,81.4 -55.45,134.04 0,53.2 18.62,97.97 56.64,135.23 37.79,37.04 81.75,56.21 134.81,56.21 52.68,0 96.4,-19.8 134.04,-56.32 36.59,-35.5 57.4,-77.68 57.4,-128.92l0 -447.04c0,-17.91 14.61,-32.52 32.52,-32.52l30.98 0c17.91,0 32.52,14.61 32.52,32.52l0 440.84c0,80.51 -28.63,150.46 -87.16,205.95 -56.05,53.15 -122.96,81.51 -200.3,81.51 -79.97,0 -148.96,-28.64 -204.77,-85.96 -54.12,-55.59 -82.69,-123.89 -82.69,-201.5 0,-80.14 28.17,-149.49 86.17,-204.96 56.16,-53.73 123.41,-82.5 201.29,-82.5 38.85,0 76.61,6.51 112.27,22.24 16.24,7.17 23.74,26.12 16.81,42.45zm790.42 222.77c0,79.29 -28.74,146.67 -84.76,202.69 -55.59,55.6 -123.15,83.88 -201.81,83.88 -78.9,0 -146.28,-28.45 -202.49,-83.68 -0.14,-0.14 -0.26,-0.26 -0.41,-0.4 -55.21,-56.21 -83.67,-123.59 -83.67,-202.49 0,-78.65 28.5,-145.93 83.77,-201.7 55.61,-56.11 123.79,-84.88 202.8,-84.88 79.04,0 146.32,28.8 201.91,84.88 55.38,55.86 84.66,122.87 84.66,201.7zm480.07 -259.11l541.74 283.41c15.31,8.01 21.68,26.54 14.53,42.26 -18.65,41.05 -41.59,73.38 -71.95,106.71 -0.18,0.2 -0.34,0.37 -0.52,0.56 -19.97,20.92 -41.51,39.51 -65.44,55.77 -0.17,0.12 -0.32,0.23 -0.5,0.34 -57.01,37.23 -134.18,57.52 -201.9,57.52 -79.38,0 -170.94,-26.56 -231.31,-79.83 -35.26,-31.11 -80.31,-78.22 -100.77,-121.01l-9.74 -20.36c-7.47,-15.61 -1.43,-34.29 13.76,-42.58l29.22 -15.93c8.04,-4.39 16.56,-5.22 25.3,-2.48 8.74,2.74 15.26,8.29 19.35,16.48 3.16,6.32 5.64,12.92 9.08,19.11 7.74,13.93 18.83,28.61 28.44,41.26 14.61,19.22 30.74,36.8 49.15,52.43 42.86,36.36 111.94,57.78 167.52,57.78 56.64,0 122.22,-19.21 165.21,-57.32 18.08,-16.03 38.68,-35.58 55.09,-56.43l-543.36 -282.55c-15.01,-7.8 -21.52,-25.65 -15.04,-41.28 16,-38.68 41.47,-71.53 70.44,-101.39 71.84,-74.03 164.39,-112.55 267.66,-112.55 66.67,0 145.99,20.37 200.71,58.79 32.95,21.96 76.63,56.7 98.75,89.89l10.37 14.68c5.42,7.69 7.2,16.34 5.24,25.54 -1.97,9.2 -7.12,16.38 -15.2,21.18l-28.33 16.81c-15.17,9.02 -34.82,4.24 -44.17,-10.72 -9.99,-15.97 -22.08,-27.61 -35.7,-40.73 -14.08,-13.56 -29.26,-26.19 -45.91,-36.49 -0.38,-0.24 -0.7,-0.45 -1.07,-0.7 -38.66,-26.09 -98.49,-41.35 -144.69,-41.35 -47.6,0 -104.89,13.67 -145.14,39.88 -0.21,0.14 -0.41,0.26 -0.63,0.4 -16.72,10.35 -31.86,23.24 -45.79,36.39 -8.74,8.73 -16.95,17.28 -24.4,26.51zm1004.38 453.22l12.39 28.32c3.63,8.3 3.76,16.75 0.39,25.15 -3.37,8.41 -9.31,14.42 -17.67,17.9 -35.76,14.9 -72.87,22.86 -111.65,22.86 -77.35,0 -144.25,-28.35 -200.31,-81.5 -58.52,-55.5 -87.15,-125.45 -87.15,-205.95 0,-78.09 28.27,-145.62 82.69,-201.5 55.81,-57.32 124.79,-85.97 204.77,-85.97 77.54,0 144.44,28.08 200.41,81.62 58.51,55.97 87.05,124.88 87.05,205.85l0 245.2c0,17.91 -14.61,32.52 -32.52,32.52l-30.98 0c-17.91,0 -32.52,-14.61 -32.52,-32.52l0 -251.4c0,-52.18 -20.07,-94.71 -57.93,-130.35 -38.01,-35.78 -81.13,-54.9 -133.51,-54.9 -52.61,0 -96.27,19.53 -134.28,55.67 -39.11,37.2 -57.17,81.89 -57.17,135.78 0,52.29 18.78,96.41 54.79,134.27 37.43,39.37 82.52,57.17 136.66,57.17 25.65,0 50.81,-5.68 74.51,-15.32 16.31,-6.62 34.97,0.97 42.03,17.1zm825.1 -194.99l0 246.97c0,17.91 -14.61,32.52 -32.52,32.52l-32.75 0c-17.91,0 -32.52,-14.61 -32.52,-32.52l0 -246.97c0,-52.89 -19.26,-96.46 -56.75,-133.58 -37.76,-37.38 -81.38,-56.98 -134.69,-56.98 -52.86,0 -96.39,19.93 -133.81,56.98 -37.5,37.12 -56.75,80.69 -56.75,133.58l0 246.97c0,17.91 -14.61,32.52 -32.52,32.52l-32.75 0c-17.91,0 -32.52,-14.61 -32.52,-32.52l0 -246.97c0,-79.04 28.79,-146.33 84.87,-201.91 56.22,-55.74 124.23,-84.67 203.48,-84.67 79.24,0 147.25,28.93 203.47,84.67 56.02,55.52 85.76,122.79 85.76,201.91zm174.39 -277.73l73.71 0c17.9,0 32.51,14.61 32.51,32.52l0 31.87c0,17.9 -14.61,32.51 -32.51,32.51l-73.71 0 0 183.48c0,52.96 19.75,96.68 58.05,133.13 37.39,35.57 80.54,56.54 132.51,56.54 17.9,0 32.51,14.61 32.51,32.52l0 30.98c0,17.91 -14.61,32.52 -32.51,32.52 -78.62,0 -147.09,-28.27 -202.7,-83.88 -55.49,-55.49 -84.66,-123.77 -85.65,-202.49l0 -441.93c0,-17.91 14.61,-32.52 32.52,-32.52l32.75 0c17.91,0 32.52,14.61 32.52,32.52l0 162.23zm802 278.61c0,79.29 -28.74,146.67 -84.76,202.69 -55.59,55.6 -123.15,83.88 -201.81,83.88 -78.9,0 -146.28,-28.45 -202.49,-83.68 -0.15,-0.14 -0.27,-0.26 -0.41,-0.4 -55.22,-56.21 -83.68,-123.59 -83.68,-202.49 0,-78.65 28.51,-145.93 83.78,-201.7 55.61,-56.11 123.79,-84.88 202.8,-84.88 79.04,0 146.32,28.8 201.91,84.88 55.38,55.86 84.66,122.87 84.66,201.7zm162.53 -116.76l402.15 174.57c16.16,7.01 23.8,25.66 17.21,41.99 -22.45,55.63 -57.14,100.69 -105.97,135.57 -49.17,35.12 -103.69,52.09 -164.08,52.09 -44.76,0 -91.14,-14.62 -132.05,-31.73 -0.31,-0.13 -0.57,-0.24 -0.87,-0.38 -60.65,-27.46 -109.31,-83.76 -133.65,-145.09 -3.37,-8.48 -3.18,-17 0.55,-25.32 3.74,-8.32 9.98,-14.12 18.55,-17.24l29.21 -10.62c16.45,-5.98 34.7,2.14 41.26,18.37 14.43,35.68 37.71,63.1 69.93,84.08 32.65,21.26 68.1,31.91 107.07,31.91 60.85,0 115.03,-27.13 151.16,-73.38l-402.31 -175.9c-15.91,-6.96 -23.55,-25.17 -17.35,-41.4 20.77,-54.4 55.42,-99.56 102.27,-134.08 49.16,-36.23 105.2,-53.26 166.23,-53.26 96.1,0 187.28,48.31 239.72,129 9.68,14.9 5.56,34.91 -9.23,44.78l-26.56 17.7c-14.87,9.91 -35.07,5.9 -45.03,-8.94 -35.91,-53.5 -94.12,-86.52 -158.9,-86.52 -35.66,0 -68.53,10.43 -98.55,29.47 -0.17,0.1 -0.31,0.19 -0.49,0.3 -19.43,11.85 -36.61,26.44 -50.27,44.03zm-6414.37 116.76c0,-52.86 -19.93,-96.39 -56.98,-133.81 -37.12,-37.49 -80.69,-56.75 -133.58,-56.75 -53.15,0 -97.08,19 -134.46,56.75 -36.9,37.27 -56.1,81.28 -56.1,133.81 0,52.59 18.81,97.41 55.98,134.58 37.17,37.16 81.99,55.98 134.58,55.98 52.59,0 97.41,-18.81 134.58,-55.98 37.17,-37.17 55.98,-81.99 55.98,-134.58zm2869.89 0c0,-52.86 -19.93,-96.39 -56.98,-133.81 -37.12,-37.49 -80.69,-56.75 -133.58,-56.75 -53.15,0 -97.08,19 -134.46,56.75 -36.9,37.27 -56.1,81.28 -56.1,133.81 0,52.59 18.81,97.41 55.98,134.58 37.17,37.16 81.99,55.98 134.58,55.98 52.6,0 97.41,-18.81 134.58,-55.98 37.17,-37.17 55.98,-81.99 55.98,-134.58zm3285.94 0c0,-52.86 -19.94,-96.39 -56.99,-133.81 -37.12,-37.49 -80.69,-56.75 -133.57,-56.75 -53.15,0 -97.09,19 -134.46,56.75 -36.9,37.27 -56.1,81.28 -56.1,133.81 0,52.59 18.81,97.41 55.98,134.58 37.17,37.16 81.99,55.98 134.58,55.98 52.59,0 97.4,-18.81 134.58,-55.98 37.17,-37.17 55.98,-81.99 55.98,-134.58z"/>
  </g>
 </g>
</svg>
